<svg id="svg" xmlns="http://www.w3.org/2000/svg" xmlns:xlink="http://www.w3.org/1999/xlink" width="400" height="137.39837398373982" viewBox="0, 0, 400,137.39837398373982"><g id="svgg"><path id="path0" d="M107.951 6.271 C 107.887 6.336,107.833 6.526,107.833 6.694 C 107.833 6.945,107.700 7.000,107.087 7.000 C 106.429 7.000,106.327 7.050,106.235 7.417 C 106.164 7.700,106.015 7.833,105.772 7.833 C 105.575 7.833,105.323 7.979,105.212 8.156 C 105.083 8.363,104.782 8.498,104.380 8.531 C 103.873 8.573,103.740 8.656,103.697 8.958 C 103.651 9.281,103.543 9.333,102.929 9.333 C 102.404 9.333,102.100 9.440,101.779 9.738 C 101.539 9.960,101.172 10.167,100.963 10.196 C 100.721 10.231,100.564 10.382,100.531 10.616 C 100.487 10.925,100.357 10.990,99.698 11.033 C 99.033 11.076,98.909 11.139,98.863 11.458 C 98.817 11.783,98.710 11.833,98.075 11.833 C 97.434 11.833,97.327 11.886,97.237 12.241 C 97.152 12.580,97.018 12.658,96.442 12.700 C 95.875 12.741,95.741 12.816,95.698 13.116 C 95.654 13.425,95.523 13.490,94.865 13.533 C 94.206 13.575,94.075 13.641,94.031 13.950 C 93.987 14.259,93.857 14.324,93.198 14.366 C 92.533 14.409,92.409 14.473,92.363 14.792 C 92.327 15.050,92.197 15.167,91.945 15.167 C 91.744 15.167,91.489 15.312,91.378 15.490 C 91.250 15.696,90.949 15.831,90.547 15.865 C 90.040 15.907,89.906 15.990,89.863 16.292 C 89.819 16.605,89.706 16.667,89.184 16.667 C 88.732 16.667,88.449 16.782,88.167 17.083 C 87.901 17.366,87.597 17.500,87.221 17.500 C 86.744 17.500,86.667 17.557,86.667 17.908 C 86.667 18.275,86.590 18.320,85.875 18.366 L 85.083 18.417 85.083 19.917 C 85.083 21.322,85.106 21.420,85.440 21.468 C 85.758 21.513,85.804 21.645,85.862 22.666 C 85.914 23.595,85.997 23.875,86.297 24.135 C 86.598 24.396,86.667 24.632,86.667 25.402 C 86.667 26.189,86.737 26.419,87.083 26.765 C 87.313 26.994,87.500 27.366,87.500 27.591 C 87.500 27.997,87.513 28.000,89.083 28.000 C 90.661 28.000,90.667 27.999,90.667 27.583 C 90.667 27.190,90.718 27.167,91.570 27.167 C 92.687 27.167,93.000 27.053,93.000 26.649 C 93.000 26.372,93.131 26.333,94.082 26.333 C 94.983 26.333,95.199 26.278,95.372 26.000 C 95.508 25.782,95.761 25.667,96.103 25.667 C 97.050 25.667,97.708 25.462,97.792 25.141 C 97.850 24.917,98.028 24.833,98.447 24.833 C 99.138 24.833,99.667 24.578,99.667 24.244 C 99.667 24.066,99.869 24.000,100.417 24.000 C 101.102 24.000,101.167 23.965,101.167 23.591 C 101.167 23.198,101.216 23.179,102.375 23.132 C 103.484 23.087,103.588 23.052,103.637 22.708 C 103.685 22.364,103.777 22.333,104.755 22.333 C 105.670 22.333,105.874 22.276,106.202 21.925 C 106.501 21.605,106.782 21.506,107.500 21.467 C 108.306 21.423,108.423 21.371,108.470 21.042 C 108.517 20.711,108.620 20.667,109.345 20.667 C 110.110 20.667,110.167 20.638,110.167 20.250 C 110.167 19.846,110.201 19.833,111.322 19.833 C 112.291 19.833,112.493 19.785,112.573 19.532 C 112.633 19.343,112.933 19.172,113.376 19.073 L 114.083 18.917 114.083 17.687 C 114.083 16.596,114.041 16.429,113.708 16.208 C 113.405 16.007,113.333 15.805,113.333 15.146 C 113.333 14.444,113.288 14.333,113.000 14.333 C 112.724 14.333,112.667 14.222,112.667 13.688 C 112.667 12.664,112.484 12.017,112.167 11.917 C 111.947 11.847,111.855 11.591,111.796 10.891 C 111.740 10.211,111.626 9.884,111.377 9.687 C 111.123 9.486,111.017 9.166,110.961 8.437 C 110.905 7.704,110.799 7.390,110.541 7.187 C 110.352 7.038,110.170 6.767,110.138 6.583 C 110.078 6.241,108.244 5.979,107.951 6.271 M350.228 29.073 C 349.941 29.198,349.656 29.383,349.594 29.484 C 349.531 29.585,349.013 29.667,348.428 29.667 C 346.966 29.667,346.305 29.823,346.208 30.192 C 346.143 30.443,345.963 30.500,345.231 30.500 C 344.389 30.500,344.333 30.525,344.333 30.909 C 344.333 31.298,344.278 31.321,343.208 31.367 C 342.194 31.412,342.078 31.453,342.031 31.783 C 341.987 32.092,341.857 32.157,341.198 32.200 C 340.539 32.242,340.409 32.307,340.365 32.616 C 340.321 32.925,340.190 32.990,339.531 33.033 C 338.866 33.076,338.742 33.139,338.697 33.458 C 338.658 33.730,338.532 33.833,338.238 33.833 C 337.917 33.833,337.833 33.920,337.833 34.250 C 337.833 34.627,337.768 34.667,337.151 34.667 C 336.619 34.667,336.450 34.737,336.385 34.986 C 336.339 35.161,336.126 35.349,335.912 35.403 C 335.698 35.457,335.477 35.643,335.422 35.816 C 335.367 35.989,335.175 36.169,334.994 36.216 C 334.800 36.267,334.667 36.444,334.667 36.651 C 334.667 36.912,334.562 37.000,334.250 37.000 C 333.917 37.000,333.833 37.083,333.833 37.417 C 333.833 37.750,333.750 37.833,333.417 37.833 C 333.087 37.833,333.000 37.917,333.000 38.238 C 333.000 38.532,332.896 38.658,332.625 38.697 C 332.384 38.731,332.231 38.884,332.197 39.125 C 332.167 39.332,331.999 39.578,331.822 39.673 C 331.645 39.768,331.500 39.925,331.500 40.022 C 331.500 40.120,331.275 40.410,331.000 40.667 C 330.725 40.924,330.500 41.273,330.500 41.444 C 330.500 41.615,330.332 41.828,330.126 41.919 C 329.920 42.009,329.724 42.233,329.689 42.415 C 329.655 42.597,329.492 42.841,329.327 42.957 C 329.161 43.072,328.973 43.411,328.907 43.709 C 328.842 44.006,328.649 44.348,328.478 44.468 C 328.307 44.588,328.167 44.856,328.167 45.064 C 328.167 45.272,327.979 45.618,327.750 45.833 C 327.430 46.134,327.333 46.392,327.333 46.946 C 327.333 47.542,327.279 47.667,327.018 47.667 C 326.614 47.667,326.500 47.979,326.500 49.085 C 326.500 49.883,326.461 49.982,326.125 50.030 C 325.798 50.076,325.744 50.196,325.700 50.958 C 325.663 51.595,325.582 51.833,325.404 51.833 C 325.086 51.833,324.833 52.510,324.833 53.359 C 324.833 53.853,324.735 54.110,324.460 54.332 C 324.141 54.590,324.078 54.829,324.026 55.984 C 323.979 57.009,323.908 57.333,323.728 57.333 C 323.336 57.333,323.167 58.099,323.167 59.875 C 323.167 61.395,323.130 61.601,322.792 61.961 L 322.417 62.360 322.365 70.222 C 322.308 78.877,322.359 79.952,322.845 80.474 C 323.110 80.759,323.167 81.066,323.167 82.231 C 323.167 83.610,323.362 84.167,323.845 84.167 C 323.930 84.167,324.000 84.645,324.000 85.229 C 324.000 86.754,324.143 87.333,324.521 87.333 C 324.788 87.333,324.833 87.465,324.833 88.236 C 324.833 89.348,324.947 89.667,325.342 89.667 C 325.595 89.667,325.658 89.821,325.700 90.542 C 325.744 91.304,325.798 91.424,326.125 91.470 C 326.447 91.516,326.500 91.624,326.500 92.233 C 326.500 92.774,326.599 93.035,326.917 93.333 C 327.219 93.618,327.333 93.898,327.333 94.359 C 327.333 94.851,327.426 95.053,327.750 95.265 C 327.979 95.415,328.167 95.674,328.167 95.840 C 328.167 96.005,328.354 96.364,328.583 96.636 C 328.813 96.909,329.000 97.210,329.000 97.306 C 329.000 97.402,329.141 97.580,329.313 97.701 C 329.486 97.821,329.655 98.069,329.690 98.252 C 329.726 98.439,329.911 98.606,330.116 98.635 C 330.342 98.667,330.499 98.825,330.531 99.052 C 330.564 99.283,330.721 99.436,330.958 99.470 C 331.230 99.508,331.333 99.635,331.333 99.928 C 331.333 100.249,331.420 100.333,331.750 100.333 C 332.085 100.333,332.167 100.416,332.167 100.758 C 332.167 101.304,332.863 102.000,333.409 102.000 C 333.751 102.000,333.833 102.081,333.833 102.417 C 333.833 102.750,333.917 102.833,334.250 102.833 C 334.583 102.833,334.667 102.917,334.667 103.250 C 334.667 103.551,334.756 103.667,334.988 103.667 C 335.195 103.667,335.329 103.801,335.363 104.042 C 335.397 104.276,335.551 104.436,335.775 104.468 C 335.972 104.496,336.169 104.658,336.214 104.829 C 336.258 104.999,336.472 105.164,336.689 105.194 C 336.949 105.231,337.101 105.378,337.137 105.625 C 337.183 105.949,337.289 106.000,337.928 106.000 C 338.605 106.000,338.667 106.035,338.667 106.417 C 338.667 106.806,338.722 106.833,339.500 106.833 C 340.278 106.833,340.333 106.861,340.333 107.250 C 340.333 107.583,340.417 107.667,340.750 107.667 C 341.005 107.667,341.167 107.762,341.167 107.911 C 341.167 108.277,341.716 108.500,342.616 108.500 C 343.291 108.500,343.448 108.561,343.585 108.875 C 343.727 109.199,343.896 109.257,344.814 109.300 C 345.671 109.341,345.934 109.421,346.174 109.717 C 346.740 110.416,361.810 110.357,362.514 109.653 C 362.734 109.432,363.066 109.333,363.584 109.333 C 364.178 109.333,364.412 109.246,364.698 108.917 C 364.943 108.634,365.232 108.500,365.594 108.500 C 365.980 108.500,366.204 108.384,366.401 108.083 C 366.606 107.771,366.820 107.667,367.254 107.667 C 367.761 107.667,367.833 107.615,367.833 107.250 C 367.833 106.868,367.895 106.833,368.580 106.833 C 369.238 106.833,369.339 106.784,369.432 106.417 C 369.507 106.118,369.649 106.000,369.935 106.000 C 370.249 106.000,370.333 105.912,370.333 105.583 C 370.333 105.250,370.417 105.167,370.750 105.167 C 371.056 105.167,371.167 105.078,371.167 104.833 C 371.167 104.645,371.278 104.500,371.422 104.500 C 371.754 104.500,372.833 103.421,372.833 103.089 C 372.833 102.927,372.987 102.833,373.250 102.833 C 373.643 102.833,373.667 102.884,373.667 103.738 C 373.667 104.603,373.934 105.167,374.345 105.167 C 374.430 105.167,374.500 105.679,374.500 106.304 C 374.500 107.302,374.551 107.490,374.917 107.833 C 375.162 108.063,375.333 108.410,375.333 108.675 C 375.333 109.046,375.425 109.143,375.854 109.229 C 376.524 109.363,386.721 109.366,387.070 109.232 C 387.308 109.141,387.333 107.018,387.333 86.898 L 387.333 64.665 370.792 64.708 L 354.250 64.750 354.250 73.583 L 354.250 82.417 359.875 82.461 L 365.500 82.504 365.500 83.745 C 365.500 84.845,365.453 85.032,365.083 85.402 C 364.854 85.631,364.667 85.992,364.667 86.205 C 364.667 86.418,364.515 86.723,364.329 86.882 C 364.143 87.041,363.947 87.389,363.894 87.654 C 363.836 87.943,363.666 88.172,363.470 88.223 C 363.289 88.270,363.103 88.458,363.055 88.640 C 363.008 88.823,362.788 89.017,362.568 89.072 C 362.313 89.136,362.167 89.293,362.167 89.503 C 362.167 89.757,362.054 89.833,361.680 89.833 C 360.990 89.833,360.667 89.991,360.667 90.327 C 360.667 90.982,354.060 90.923,353.967 90.267 C 353.926 89.985,353.781 89.907,353.219 89.866 C 352.646 89.824,352.511 89.749,352.469 89.449 C 352.437 89.223,352.280 89.064,352.057 89.032 C 351.839 89.001,351.658 88.822,351.596 88.574 C 351.532 88.320,351.374 88.167,351.175 88.167 C 350.972 88.167,350.837 88.031,350.803 87.792 C 350.769 87.551,350.616 87.398,350.375 87.363 C 350.134 87.329,350.000 87.195,350.000 86.988 C 350.000 86.756,349.884 86.667,349.583 86.667 C 349.194 86.667,349.167 86.611,349.167 85.833 C 349.167 85.131,349.118 85.000,348.855 85.000 C 348.484 85.000,348.338 84.330,348.335 82.609 C 348.333 81.526,347.991 80.500,347.631 80.500 C 347.559 80.500,347.500 79.192,347.500 77.593 C 347.500 74.929,347.474 74.667,347.184 74.464 C 346.782 74.183,346.568 66.000,346.962 66.000 C 347.372 66.000,347.500 65.122,347.500 62.322 C 347.500 60.602,347.563 59.500,347.662 59.500 C 348.062 59.500,348.333 58.486,348.333 56.991 C 348.333 55.561,348.360 55.444,348.750 55.137 C 349.092 54.868,349.167 54.665,349.167 53.999 C 349.167 53.287,349.212 53.183,349.542 53.137 C 349.809 53.099,349.932 52.953,349.969 52.629 C 349.998 52.379,350.204 52.030,350.427 51.855 C 350.651 51.679,350.833 51.383,350.833 51.196 C 350.833 50.971,350.960 50.839,351.208 50.803 C 351.446 50.770,351.602 50.616,351.635 50.385 C 351.668 50.158,351.825 50.001,352.052 49.969 C 352.276 49.937,352.436 49.779,352.467 49.562 C 352.511 49.258,352.655 49.195,353.458 49.129 C 354.182 49.068,354.453 48.968,354.636 48.692 C 355.022 48.110,357.879 48.154,358.431 48.750 C 358.754 49.098,358.970 49.167,359.742 49.167 C 360.617 49.167,360.667 49.189,360.667 49.583 C 360.667 49.917,360.750 50.000,361.083 50.000 C 361.417 50.000,361.500 50.083,361.500 50.417 C 361.500 50.722,361.589 50.833,361.833 50.833 C 362.067 50.833,362.167 50.945,362.169 51.208 C 362.173 51.913,362.366 52.333,362.686 52.333 C 362.942 52.333,363.000 52.458,363.000 53.008 C 363.000 53.505,363.110 53.791,363.417 54.098 C 363.723 54.405,363.833 54.693,363.833 55.185 C 363.833 55.963,364.074 56.500,364.423 56.500 C 364.619 56.500,364.667 56.797,364.667 58.024 C 364.667 60.222,364.968 60.500,367.354 60.500 C 369.065 60.500,370.200 60.291,370.680 59.888 C 370.878 59.721,371.710 59.667,374.043 59.667 C 377.177 59.667,377.667 59.575,377.667 58.988 C 377.667 58.898,378.986 58.833,380.808 58.833 C 383.716 58.833,383.970 58.809,384.244 58.506 C 384.483 58.242,384.800 58.170,385.895 58.131 L 387.250 58.083 387.296 55.544 C 387.339 53.169,387.320 52.985,387.004 52.715 C 386.743 52.492,386.667 52.223,386.667 51.535 C 386.667 50.556,386.453 50.000,386.077 50.000 C 385.901 50.000,385.833 49.801,385.833 49.279 C 385.833 48.726,385.737 48.467,385.417 48.167 C 385.116 47.884,385.000 47.601,385.000 47.151 C 385.000 46.317,384.860 46.000,384.491 46.000 C 384.244 46.000,384.175 45.847,384.134 45.208 C 384.091 44.533,384.028 44.409,383.708 44.363 C 383.386 44.318,383.333 44.210,383.333 43.590 C 383.333 42.965,383.279 42.856,382.927 42.767 C 382.600 42.685,382.510 42.543,382.468 42.041 C 382.430 41.582,382.317 41.373,382.042 41.252 C 381.812 41.151,381.667 40.942,381.667 40.710 C 381.667 40.419,381.572 40.333,381.250 40.333 C 380.922 40.333,380.833 40.249,380.833 39.934 C 380.833 39.715,380.647 39.358,380.420 39.142 C 380.192 38.927,380.004 38.583,380.003 38.378 C 380.001 38.122,379.871 37.974,379.583 37.902 C 379.354 37.844,379.167 37.691,379.167 37.562 C 379.167 37.432,378.979 37.241,378.750 37.136 C 378.521 37.032,378.333 36.809,378.333 36.640 C 378.333 36.446,378.213 36.333,378.006 36.333 C 377.826 36.333,377.448 36.108,377.167 35.833 C 376.885 35.558,376.508 35.333,376.328 35.333 C 376.111 35.333,376.000 35.220,376.000 35.000 C 376.000 34.756,375.889 34.667,375.583 34.667 C 375.250 34.667,375.167 34.583,375.167 34.250 C 375.167 33.922,375.082 33.833,374.768 33.833 C 374.482 33.833,374.340 33.716,374.265 33.417 C 374.176 33.063,374.064 33.000,373.524 33.000 C 373.006 33.000,372.851 32.922,372.697 32.583 C 372.543 32.246,372.387 32.167,371.876 32.167 C 371.382 32.167,371.210 32.086,371.081 31.792 C 370.938 31.464,370.774 31.410,369.792 31.367 C 368.722 31.321,368.667 31.298,368.667 30.909 C 368.667 30.531,368.606 30.500,367.853 30.500 C 367.201 30.500,367.023 30.439,366.958 30.192 C 366.862 29.824,366.201 29.667,364.749 29.667 C 363.875 29.667,363.692 29.617,363.625 29.359 C 363.476 28.790,351.467 28.534,350.228 29.073 M254.167 69.755 C 254.167 106.984,254.182 109.017,254.458 109.130 C 254.619 109.196,262.688 109.250,272.390 109.250 L 290.029 109.250 290.333 108.875 C 290.600 108.545,290.791 108.500,291.913 108.500 C 293.249 108.500,293.833 108.321,293.833 107.911 C 293.833 107.729,294.046 107.667,294.667 107.667 C 295.444 107.667,295.500 107.639,295.500 107.250 C 295.500 106.848,295.539 106.833,296.587 106.833 C 297.585 106.833,297.689 106.799,297.864 106.417 C 298.023 106.068,298.168 106.000,298.759 106.000 C 299.372 106.000,299.478 105.946,299.568 105.583 C 299.659 105.224,299.767 105.167,300.352 105.167 C 300.884 105.167,301.050 105.097,301.116 104.843 C 301.163 104.665,301.362 104.496,301.559 104.468 C 301.783 104.436,301.937 104.276,301.970 104.042 C 302.008 103.773,302.135 103.667,302.417 103.667 C 303.011 103.667,303.667 103.372,303.667 103.106 C 303.667 102.976,303.854 102.822,304.083 102.765 C 304.346 102.699,304.500 102.543,304.500 102.342 C 304.500 102.138,304.635 102.004,304.875 101.970 C 305.112 101.936,305.269 101.783,305.302 101.552 C 305.334 101.325,305.491 101.168,305.719 101.135 C 305.949 101.102,306.103 100.946,306.137 100.708 C 306.171 100.467,306.305 100.333,306.512 100.333 C 306.744 100.333,306.833 100.217,306.833 99.917 C 306.833 99.583,306.917 99.500,307.250 99.500 C 307.583 99.500,307.667 99.417,307.667 99.083 C 307.667 98.750,307.750 98.667,308.083 98.667 C 308.384 98.667,308.500 98.577,308.500 98.345 C 308.500 98.138,308.634 98.004,308.875 97.970 C 309.110 97.937,309.269 97.783,309.301 97.557 C 309.332 97.339,309.512 97.158,309.760 97.096 C 310.022 97.030,310.167 96.875,310.167 96.659 C 310.167 96.456,310.330 96.263,310.583 96.167 C 310.931 96.035,311.000 95.899,311.000 95.349 C 311.000 94.792,311.058 94.682,311.375 94.637 C 311.610 94.603,311.769 94.449,311.801 94.225 C 311.829 94.028,311.987 93.832,312.153 93.789 C 312.318 93.746,312.503 93.511,312.564 93.268 C 312.625 93.024,312.823 92.677,313.004 92.496 C 313.185 92.315,313.333 92.007,313.333 91.811 C 313.333 91.615,313.521 91.281,313.750 91.069 C 314.083 90.760,314.167 90.522,314.167 89.881 C 314.167 89.209,314.228 89.052,314.542 88.915 C 314.869 88.771,314.923 88.607,314.966 87.625 C 315.013 86.555,315.035 86.500,315.424 86.500 C 315.804 86.500,315.833 86.440,315.833 85.674 C 315.833 85.016,315.918 84.764,316.250 84.432 C 316.621 84.061,316.667 83.877,316.667 82.758 C 316.667 81.742,316.716 81.500,316.921 81.500 C 317.327 81.500,317.500 80.762,317.500 79.026 C 317.500 77.634,317.545 77.369,317.821 77.132 C 318.531 76.524,318.587 62.243,317.882 61.672 C 317.560 61.412,317.507 61.187,317.465 59.895 C 317.421 58.545,317.384 58.402,317.042 58.252 C 316.706 58.105,316.667 57.970,316.667 56.953 C 316.667 55.965,316.613 55.764,316.250 55.402 C 315.918 55.069,315.833 54.818,315.833 54.159 C 315.833 53.393,315.804 53.333,315.424 53.333 C 315.035 53.333,315.013 53.278,314.966 52.208 C 314.923 51.233,314.868 51.062,314.549 50.922 C 314.261 50.796,314.171 50.598,314.133 50.005 C 314.091 49.367,314.025 49.242,313.708 49.197 C 313.377 49.150,313.333 49.047,313.333 48.322 C 313.333 47.726,313.243 47.410,313.004 47.171 C 312.823 46.990,312.628 46.652,312.570 46.421 C 312.506 46.170,312.345 46.000,312.170 46.000 C 311.955 46.000,311.847 45.817,311.767 45.317 C 311.690 44.839,311.561 44.608,311.338 44.550 C 311.145 44.499,310.999 44.292,310.968 44.025 C 310.932 43.718,310.806 43.568,310.552 43.531 C 310.325 43.499,310.168 43.342,310.135 43.115 C 310.102 42.884,309.946 42.730,309.708 42.697 C 309.420 42.656,309.333 42.534,309.333 42.169 C 309.333 41.483,309.174 41.167,308.827 41.167 C 308.639 41.167,308.503 41.024,308.470 40.792 C 308.436 40.551,308.283 40.398,308.042 40.363 C 307.770 40.325,307.667 40.198,307.667 39.905 C 307.667 39.584,307.580 39.500,307.250 39.500 C 306.917 39.500,306.833 39.417,306.833 39.083 C 306.833 38.786,306.743 38.667,306.519 38.667 C 306.342 38.667,306.166 38.516,306.115 38.321 C 306.065 38.131,305.863 37.933,305.666 37.882 C 305.469 37.830,305.240 37.611,305.158 37.394 C 305.073 37.170,304.871 37.000,304.690 37.000 C 304.514 37.000,304.334 36.854,304.286 36.671 C 304.225 36.439,304.003 36.311,303.526 36.235 C 303.008 36.152,302.840 36.045,302.801 35.774 C 302.772 35.576,302.603 35.393,302.417 35.359 C 302.233 35.325,301.949 35.155,301.785 34.982 C 301.604 34.791,301.260 34.667,300.910 34.667 C 300.406 34.667,300.333 34.614,300.333 34.250 C 300.333 33.869,300.271 33.833,299.601 33.833 C 298.960 33.833,298.857 33.782,298.765 33.417 C 298.673 33.052,298.570 33.000,297.934 33.000 C 297.365 33.000,297.153 32.918,296.959 32.625 C 296.739 32.294,296.542 32.244,295.281 32.192 C 293.968 32.138,293.848 32.104,293.801 31.775 C 293.754 31.442,293.641 31.413,292.208 31.369 C 291.360 31.342,290.667 31.254,290.667 31.172 C 290.667 30.484,291.107 30.500,272.155 30.500 L 254.167 30.500 254.167 69.755 M11.040 43.458 L 11.083 53.917 17.958 53.960 L 24.832 54.004 24.875 82.794 L 24.917 111.583 35.792 111.626 L 46.667 111.669 46.667 82.836 L 46.667 54.004 53.958 53.960 L 61.250 53.917 61.293 43.458 L 61.336 33.000 36.167 33.000 L 10.997 33.000 11.040 43.458 M65.612 33.110 C 65.439 33.284,65.485 93.652,65.660 94.404 C 65.743 94.763,65.929 95.123,66.072 95.204 C 66.263 95.311,66.333 95.613,66.333 96.328 C 66.333 97.521,66.441 97.833,66.851 97.833 C 67.118 97.833,67.167 97.960,67.167 98.655 C 67.167 99.380,67.211 99.483,67.542 99.530 C 67.852 99.574,67.931 99.713,68.000 100.333 C 68.069 100.954,68.148 101.093,68.458 101.137 C 68.763 101.180,68.833 101.296,68.833 101.752 C 68.833 102.114,68.945 102.393,69.147 102.534 C 69.319 102.655,69.488 102.903,69.523 103.085 C 69.557 103.267,69.751 103.489,69.953 103.578 C 70.154 103.667,70.342 103.892,70.368 104.078 C 70.398 104.283,70.565 104.438,70.792 104.470 C 71.033 104.504,71.167 104.638,71.167 104.845 C 71.167 105.077,71.283 105.167,71.583 105.167 C 71.917 105.167,72.000 105.250,72.000 105.583 C 72.000 105.917,72.083 106.000,72.417 106.000 C 72.750 106.000,72.833 106.083,72.833 106.417 C 72.833 106.747,72.917 106.833,73.238 106.833 C 73.532 106.833,73.658 106.937,73.697 107.208 C 73.737 107.495,73.877 107.596,74.288 107.635 C 74.615 107.667,74.950 107.846,75.145 108.094 C 75.321 108.317,75.585 108.500,75.732 108.500 C 75.880 108.500,76.000 108.570,76.000 108.655 C 76.000 108.991,76.553 109.333,77.095 109.333 C 77.496 109.333,77.667 109.409,77.667 109.587 C 77.667 109.890,78.320 110.167,79.033 110.167 C 79.365 110.167,79.681 110.313,79.931 110.583 C 80.234 110.910,80.481 111.000,81.075 111.000 C 81.722 111.000,81.833 111.049,81.833 111.333 C 81.833 111.634,81.944 111.667,82.982 111.667 C 84.068 111.667,84.136 111.689,84.235 112.083 C 84.339 112.498,84.351 112.500,86.258 112.500 C 87.934 112.500,88.191 112.537,88.285 112.792 C 88.477 113.313,88.672 113.328,95.386 113.331 C 102.038 113.333,102.667 113.283,102.667 112.744 C 102.667 112.546,102.979 112.500,104.315 112.500 C 105.935 112.500,105.966 112.493,106.068 112.083 C 106.167 111.689,106.234 111.667,107.337 111.667 C 108.378 111.667,108.500 111.633,108.500 111.342 C 108.500 111.074,108.636 111.010,109.292 110.967 C 109.967 110.924,110.091 110.862,110.137 110.542 C 110.182 110.224,110.292 110.167,110.856 110.167 C 111.566 110.167,112.165 109.928,112.383 109.559 C 112.457 109.435,112.704 109.333,112.933 109.333 C 113.161 109.333,113.530 109.151,113.753 108.929 C 113.975 108.706,114.328 108.500,114.537 108.471 C 114.783 108.436,114.935 108.284,114.970 108.042 C 115.008 107.770,115.135 107.667,115.428 107.667 C 115.749 107.667,115.833 107.580,115.833 107.250 C 115.833 106.917,115.917 106.833,116.250 106.833 C 116.581 106.833,116.667 106.749,116.667 106.427 C 116.667 106.077,116.754 106.013,117.292 105.968 C 117.751 105.930,117.960 105.817,118.081 105.542 C 118.172 105.335,118.317 105.167,118.405 105.167 C 118.688 105.167,119.851 103.762,119.945 103.306 C 119.995 103.062,120.177 102.826,120.351 102.780 C 120.558 102.726,120.667 102.550,120.667 102.266 C 120.667 101.997,120.759 101.833,120.911 101.833 C 121.282 101.833,121.500 101.281,121.500 100.344 C 121.500 99.555,121.527 99.500,121.917 99.500 C 122.306 99.500,122.333 99.444,122.333 98.667 C 122.333 97.960,122.381 97.833,122.649 97.833 C 123.053 97.833,123.167 97.521,123.167 96.403 C 123.167 95.906,123.236 95.500,123.321 95.500 C 123.837 95.500,124.000 94.952,124.000 93.223 C 124.000 91.606,124.029 91.447,124.375 91.166 L 124.750 90.863 124.795 62.509 C 124.820 46.914,124.777 33.914,124.701 33.619 L 124.562 33.083 115.364 33.040 L 106.167 32.997 106.167 58.999 C 106.167 81.722,106.136 85.000,105.923 85.000 C 105.484 85.000,105.333 85.616,105.333 87.414 C 105.333 89.086,105.311 89.204,104.917 89.569 C 104.688 89.781,104.500 90.110,104.500 90.299 C 104.500 90.529,104.376 90.661,104.125 90.697 C 103.888 90.730,103.731 90.884,103.698 91.115 C 103.666 91.342,103.509 91.499,103.281 91.531 C 103.051 91.564,102.897 91.721,102.863 91.958 C 102.825 92.230,102.698 92.333,102.405 92.333 C 102.084 92.333,102.000 92.420,102.000 92.750 C 102.000 93.162,101.984 93.167,100.568 93.167 C 99.276 93.167,99.127 93.199,99.048 93.500 C 98.968 93.808,98.821 93.833,97.147 93.833 C 95.556 93.833,95.292 93.792,95.000 93.500 C 94.731 93.231,94.444 93.167,93.512 93.167 C 92.441 93.167,92.353 93.139,92.303 92.792 C 92.270 92.554,92.116 92.398,91.885 92.365 C 91.658 92.332,91.501 92.175,91.469 91.948 C 91.436 91.717,91.279 91.564,91.042 91.530 C 90.777 91.493,90.667 91.364,90.667 91.094 C 90.667 90.884,90.489 90.533,90.272 90.314 C 89.975 90.015,89.858 89.675,89.799 88.937 C 89.738 88.188,89.635 87.894,89.360 87.687 L 89.001 87.416 88.959 60.250 L 88.917 33.083 77.321 33.041 C 70.943 33.017,65.674 33.048,65.612 33.110 M285.863 50.375 C 285.898 50.616,286.051 50.769,286.292 50.803 C 286.498 50.833,286.667 50.966,286.667 51.099 C 286.667 51.373,287.319 51.667,287.928 51.667 C 288.222 51.667,288.333 51.758,288.333 52.000 C 288.333 52.216,288.444 52.333,288.648 52.333 C 288.892 52.333,288.987 52.499,289.073 53.075 C 289.151 53.593,289.279 53.847,289.498 53.916 C 289.671 53.971,289.836 54.181,289.864 54.383 C 289.898 54.616,290.053 54.769,290.292 54.803 C 290.560 54.841,290.667 54.969,290.667 55.251 C 290.667 55.859,290.964 56.500,291.246 56.500 C 291.436 56.500,291.500 56.689,291.500 57.247 C 291.500 57.894,291.553 58.007,291.895 58.093 C 292.271 58.187,292.294 58.274,292.371 59.879 C 292.443 61.369,292.494 61.594,292.810 61.804 C 293.146 62.027,293.167 62.174,293.167 64.382 C 293.167 66.378,293.210 66.771,293.458 67.046 C 293.704 67.318,293.750 67.704,293.750 69.500 C 293.750 71.296,293.704 71.682,293.458 71.954 C 293.209 72.229,293.167 72.623,293.167 74.645 C 293.167 76.797,293.134 77.057,292.813 77.491 C 292.536 77.867,292.441 78.293,292.374 79.471 C 292.302 80.747,292.243 80.985,291.982 81.053 C 291.773 81.108,291.641 81.352,291.566 81.823 C 291.499 82.242,291.334 82.577,291.146 82.678 C 290.961 82.777,290.793 83.111,290.730 83.505 C 290.653 83.986,290.544 84.167,290.330 84.167 C 289.980 84.167,289.833 84.490,289.833 85.264 C 289.833 85.760,289.780 85.833,289.417 85.833 C 289.083 85.833,289.000 85.917,289.000 86.250 C 289.000 86.556,288.911 86.667,288.667 86.667 C 288.448 86.667,288.333 86.778,288.333 86.988 C 288.333 87.195,288.199 87.329,287.958 87.363 C 287.717 87.398,287.564 87.551,287.530 87.792 C 287.492 88.063,287.365 88.167,287.072 88.167 C 286.757 88.167,286.667 88.255,286.667 88.559 C 286.667 88.925,286.587 88.958,285.480 89.051 C 284.543 89.130,284.242 89.223,284.054 89.492 C 283.827 89.815,283.649 89.833,280.741 89.833 L 277.667 89.833 277.667 69.917 L 277.667 50.000 281.738 50.000 L 285.810 50.000 285.863 50.375 " stroke="none" fill="#fcfcfc" fill-rule="evenodd"></path><path id="path1" d="M164.874 25.860 C 164.726 26.008,164.667 26.846,164.667 28.807 C 164.667 31.183,164.629 31.574,164.386 31.752 C 164.011 32.026,163.853 33.545,163.842 36.982 C 163.835 39.310,163.793 39.743,163.561 39.912 C 163.219 40.163,163.025 42.029,163.010 45.214 C 163.002 47.067,162.946 47.594,162.722 47.937 C 162.412 48.408,162.194 51.259,162.176 55.048 C 162.169 56.744,162.110 57.265,161.889 57.603 C 161.651 57.965,161.600 58.710,161.533 62.763 C 161.490 65.369,161.392 67.500,161.315 67.500 C 160.803 67.500,160.667 68.513,160.667 72.325 C 160.667 75.588,160.630 76.167,160.423 76.167 C 159.920 76.167,159.833 76.815,159.833 80.553 C 159.833 84.052,159.813 84.300,159.525 84.375 C 159.146 84.474,159.000 85.135,159.000 86.760 C 159.000 88.445,159.162 88.802,159.986 88.934 C 160.494 89.015,160.661 89.123,160.699 89.395 C 160.731 89.616,160.891 89.770,161.125 89.803 C 161.365 89.837,161.500 89.972,161.500 90.175 C 161.500 90.373,161.652 90.532,161.901 90.594 C 162.121 90.650,162.339 90.836,162.384 91.009 C 162.441 91.226,162.676 91.357,163.135 91.431 C 163.595 91.504,163.830 91.636,163.887 91.852 C 163.934 92.034,164.116 92.167,164.318 92.167 C 164.579 92.167,164.667 92.272,164.667 92.583 C 164.667 92.912,164.751 93.000,165.065 93.000 C 165.351 93.000,165.493 93.118,165.568 93.417 C 165.635 93.681,165.791 93.833,165.995 93.833 C 166.171 93.833,166.518 94.021,166.766 94.250 C 167.013 94.479,167.392 94.667,167.608 94.667 C 167.915 94.667,168.000 94.757,168.000 95.083 C 168.000 95.389,168.089 95.500,168.333 95.500 C 168.527 95.500,168.667 95.611,168.667 95.764 C 168.667 95.910,168.892 96.114,169.167 96.218 C 169.464 96.330,169.667 96.526,169.667 96.703 C 169.667 96.879,169.790 97.000,169.970 97.000 C 170.137 97.000,170.438 97.190,170.640 97.421 C 170.841 97.653,171.230 97.888,171.503 97.942 C 171.843 98.010,172.000 98.141,172.000 98.354 C 172.000 98.574,172.120 98.667,172.405 98.667 C 172.698 98.667,172.825 98.770,172.863 99.042 C 172.896 99.268,173.050 99.436,173.255 99.465 C 173.441 99.492,173.666 99.679,173.755 99.882 C 173.853 100.106,174.095 100.271,174.371 100.302 C 174.621 100.331,174.970 100.537,175.145 100.761 C 175.321 100.984,175.577 101.167,175.714 101.167 C 175.852 101.167,176.011 101.354,176.068 101.583 C 176.138 101.860,176.289 102.000,176.519 102.000 C 176.719 102.000,176.900 102.134,176.948 102.319 C 176.994 102.495,177.212 102.684,177.432 102.739 C 177.653 102.794,177.833 102.939,177.833 103.060 C 177.833 103.308,178.521 103.667,178.996 103.667 C 179.195 103.667,179.330 103.804,179.363 104.042 C 179.398 104.283,179.551 104.436,179.792 104.470 C 180.033 104.504,180.167 104.638,180.167 104.845 C 180.167 105.075,180.283 105.167,180.572 105.167 C 180.865 105.167,180.992 105.270,181.030 105.542 C 181.074 105.853,181.203 105.925,181.792 105.968 C 182.418 106.013,182.500 106.066,182.500 106.426 C 182.500 106.746,182.587 106.833,182.905 106.833 C 183.198 106.833,183.325 106.937,183.363 107.208 C 183.397 107.446,183.551 107.602,183.781 107.635 C 184.009 107.668,184.166 107.825,184.198 108.052 C 184.243 108.365,184.371 108.424,185.108 108.466 C 185.794 108.506,185.982 108.581,186.050 108.841 C 186.180 109.337,187.229 109.286,187.758 108.758 C 188.619 107.896,188.217 106.167,187.155 106.167 C 186.745 106.167,186.667 106.100,186.667 105.750 C 186.667 105.417,186.583 105.333,186.250 105.333 C 185.917 105.333,185.833 105.250,185.833 104.917 C 185.833 104.587,185.749 104.500,185.428 104.500 C 185.135 104.500,185.008 104.396,184.970 104.125 C 184.936 103.884,184.783 103.731,184.542 103.697 C 184.270 103.658,184.167 103.532,184.167 103.238 C 184.167 102.917,184.080 102.833,183.750 102.833 C 183.440 102.833,183.333 102.745,183.333 102.489 C 183.333 102.300,183.127 101.919,182.875 101.643 C 182.623 101.367,182.259 100.967,182.066 100.754 C 181.873 100.541,181.666 100.240,181.607 100.084 C 181.547 99.929,181.356 99.764,181.181 99.719 C 181.007 99.673,180.825 99.487,180.778 99.306 C 180.730 99.124,180.543 98.936,180.361 98.889 C 180.179 98.841,179.992 98.654,179.944 98.472 C 179.897 98.291,179.703 98.101,179.512 98.052 C 179.322 98.002,179.167 97.856,179.167 97.726 C 179.167 97.597,178.979 97.420,178.750 97.333 C 178.521 97.246,178.333 97.063,178.333 96.927 C 178.333 96.790,178.188 96.601,178.011 96.506 C 177.834 96.411,177.642 96.184,177.583 96.000 C 177.525 95.817,177.341 95.667,177.174 95.667 C 176.988 95.667,176.829 95.504,176.765 95.250 C 176.697 94.981,176.543 94.833,176.330 94.833 C 176.110 94.833,176.000 94.721,176.000 94.496 C 176.000 94.289,175.838 94.097,175.583 94.000 C 175.328 93.903,175.167 93.711,175.167 93.504 C 175.167 93.258,175.057 93.167,174.762 93.167 C 174.468 93.167,174.342 93.063,174.303 92.792 C 174.269 92.551,174.116 92.398,173.875 92.363 C 173.604 92.325,173.500 92.198,173.500 91.905 C 173.500 91.623,173.407 91.500,173.193 91.500 C 173.025 91.500,172.801 91.313,172.697 91.083 C 172.593 90.854,172.405 90.667,172.280 90.667 C 172.156 90.667,171.968 90.479,171.864 90.250 C 171.759 90.021,171.560 89.833,171.420 89.833 C 171.279 89.833,171.167 89.688,171.167 89.503 C 171.167 89.290,171.019 89.136,170.750 89.068 C 170.491 89.003,170.333 88.846,170.333 88.652 C 170.333 88.458,170.176 88.300,169.917 88.235 C 169.658 88.170,169.500 88.012,169.500 87.818 C 169.500 87.625,169.342 87.467,169.083 87.402 C 168.823 87.336,168.667 87.179,168.667 86.982 C 168.667 86.757,168.548 86.667,168.250 86.667 C 167.917 86.667,167.833 86.583,167.833 86.250 C 167.833 85.917,167.750 85.833,167.417 85.833 L 167.000 85.833 167.000 80.977 C 167.000 76.870,167.038 76.092,167.248 75.935 C 167.733 75.574,167.833 73.963,167.833 66.554 L 167.833 59.153 168.208 58.646 C 168.583 58.140,168.583 58.126,168.631 50.471 C 168.677 43.155,168.695 42.782,169.006 42.360 C 169.715 41.400,169.655 31.500,168.941 31.500 C 168.774 31.500,168.686 31.212,168.634 30.496 C 168.577 29.702,168.485 29.438,168.197 29.236 C 167.917 29.040,167.833 28.813,167.833 28.251 C 167.833 27.351,167.588 26.667,167.265 26.667 C 167.124 26.667,167.000 26.475,166.969 26.208 C 166.909 25.686,165.313 25.420,164.874 25.860 M213.611 25.778 C 213.550 25.839,213.500 26.021,213.500 26.183 C 213.500 26.345,213.358 26.523,213.185 26.578 C 212.819 26.694,212.672 27.133,212.669 28.117 C 212.667 28.641,212.561 28.924,212.250 29.235 C 211.921 29.564,211.833 29.820,211.833 30.453 C 211.833 31.124,211.772 31.281,211.458 31.419 C 210.766 31.723,210.853 42.525,211.554 43.302 C 211.772 43.543,211.817 44.709,211.872 51.500 C 211.935 59.340,212.018 60.500,212.516 60.500 C 212.603 60.500,212.670 63.507,212.674 67.625 C 212.681 74.866,212.758 76.078,213.233 76.425 C 213.467 76.596,213.500 77.197,213.500 81.227 L 213.500 85.833 213.083 85.833 C 212.750 85.833,212.667 85.917,212.667 86.250 C 212.667 86.583,212.583 86.667,212.250 86.667 C 211.952 86.667,211.833 86.757,211.833 86.982 C 211.833 87.179,211.677 87.336,211.417 87.402 C 211.159 87.467,211.000 87.625,211.000 87.817 C 211.000 87.991,210.848 88.167,210.654 88.218 C 210.464 88.268,210.270 88.457,210.222 88.639 C 210.175 88.821,209.987 89.008,209.806 89.056 C 209.624 89.103,209.435 89.297,209.385 89.488 C 209.334 89.683,209.158 89.833,208.981 89.833 C 208.759 89.833,208.667 89.953,208.667 90.238 C 208.667 90.532,208.563 90.658,208.292 90.697 C 208.051 90.731,207.898 90.884,207.863 91.125 C 207.825 91.396,207.698 91.500,207.405 91.500 C 207.087 91.500,207.000 91.587,207.000 91.905 C 207.000 92.198,206.896 92.325,206.625 92.363 C 206.384 92.398,206.231 92.551,206.197 92.792 C 206.162 93.040,206.029 93.167,205.806 93.167 C 205.611 93.167,205.433 93.305,205.383 93.494 C 205.336 93.675,205.151 93.869,204.972 93.925 C 204.794 93.982,204.579 94.210,204.495 94.431 C 204.410 94.652,204.236 94.833,204.107 94.833 C 203.978 94.833,203.832 94.989,203.782 95.179 C 203.732 95.369,203.536 95.565,203.346 95.615 C 203.156 95.665,203.000 95.811,203.000 95.940 C 203.000 96.068,202.813 96.259,202.583 96.364 C 202.354 96.468,202.167 96.683,202.167 96.842 C 202.167 97.011,201.994 97.174,201.750 97.235 C 201.487 97.301,201.333 97.457,201.333 97.658 C 201.333 97.862,201.198 97.996,200.958 98.030 C 200.721 98.064,200.564 98.217,200.531 98.448 C 200.499 98.675,200.342 98.832,200.115 98.865 C 199.884 98.898,199.730 99.054,199.697 99.292 C 199.663 99.531,199.528 99.667,199.325 99.667 C 199.124 99.667,198.968 99.821,198.902 100.083 C 198.844 100.313,198.691 100.500,198.562 100.500 C 198.432 100.500,198.241 100.688,198.136 100.917 C 198.032 101.146,197.844 101.333,197.718 101.333 C 197.592 101.333,197.440 101.465,197.380 101.625 C 197.320 101.785,197.078 102.106,196.844 102.338 C 195.974 103.195,195.500 103.840,195.500 104.165 C 195.500 104.378,195.389 104.500,195.197 104.500 C 195.031 104.500,194.499 104.875,194.016 105.333 C 193.533 105.792,193.035 106.167,192.908 106.167 C 192.256 106.167,192.129 108.483,192.756 108.942 C 193.228 109.287,194.126 109.227,194.372 108.833 C 194.533 108.576,194.761 108.500,195.370 108.500 C 196.069 108.500,196.172 108.453,196.262 108.093 C 196.325 107.845,196.505 107.666,196.724 107.635 C 196.949 107.602,197.103 107.444,197.137 107.208 C 197.175 106.937,197.302 106.833,197.595 106.833 C 197.913 106.833,198.000 106.746,198.000 106.427 C 198.000 106.077,198.088 106.013,198.625 105.968 C 199.084 105.930,199.294 105.817,199.415 105.542 C 199.515 105.312,199.725 105.167,199.956 105.167 C 200.218 105.167,200.333 105.068,200.333 104.845 C 200.333 104.638,200.467 104.504,200.708 104.470 C 200.946 104.436,201.102 104.283,201.135 104.052 C 201.168 103.825,201.325 103.668,201.552 103.635 C 201.776 103.603,201.936 103.446,201.968 103.226 C 202.008 102.943,202.172 102.845,202.751 102.759 C 203.261 102.682,203.514 102.553,203.583 102.335 C 203.638 102.162,203.848 101.998,204.050 101.969 C 204.279 101.936,204.436 101.780,204.469 101.552 C 204.501 101.325,204.658 101.168,204.885 101.135 C 205.116 101.102,205.270 100.946,205.303 100.708 C 205.344 100.419,205.466 100.333,205.833 100.333 C 206.288 100.333,206.833 99.970,206.833 99.666 C 206.833 99.588,207.002 99.499,207.208 99.470 C 207.449 99.436,207.602 99.283,207.637 99.042 C 207.675 98.770,207.802 98.667,208.095 98.667 C 208.389 98.667,208.500 98.575,208.500 98.333 C 208.500 98.118,208.611 98.000,208.814 98.000 C 208.987 98.000,209.247 97.819,209.392 97.598 C 209.537 97.377,209.884 97.146,210.162 97.084 C 210.441 97.023,210.744 96.834,210.835 96.664 C 210.925 96.495,211.146 96.309,211.325 96.253 C 211.503 96.196,211.694 96.008,211.749 95.835 C 211.804 95.663,212.014 95.498,212.216 95.469 C 212.449 95.436,212.603 95.280,212.637 95.042 C 212.671 94.801,212.805 94.667,213.012 94.667 C 213.189 94.667,213.333 94.592,213.333 94.500 C 213.333 94.408,213.438 94.333,213.566 94.333 C 213.693 94.333,213.839 94.227,213.889 94.096 C 213.939 93.966,214.153 93.835,214.365 93.805 C 214.577 93.775,214.824 93.581,214.915 93.375 C 215.015 93.145,215.225 93.000,215.456 93.000 C 215.747 93.000,215.833 92.905,215.833 92.583 C 215.833 92.250,215.917 92.167,216.250 92.167 C 216.556 92.167,216.667 92.078,216.667 91.833 C 216.667 91.589,216.778 91.500,217.085 91.500 C 217.322 91.500,217.729 91.284,218.026 91.000 C 218.314 90.725,218.651 90.500,218.775 90.500 C 218.899 90.500,219.000 90.386,219.000 90.246 C 219.000 90.106,219.195 89.918,219.433 89.827 C 219.671 89.737,219.905 89.514,219.952 89.331 C 220.000 89.149,220.143 89.000,220.271 89.000 C 221.431 89.000,222.077 85.978,221.083 85.196 L 220.667 84.869 220.667 81.184 C 220.667 77.793,220.642 77.475,220.351 77.185 C 220.064 76.897,220.031 76.527,219.976 72.997 C 219.918 69.197,219.910 69.119,219.542 68.875 C 219.175 68.631,219.166 68.556,219.154 65.355 C 219.141 61.632,219.011 60.375,218.610 60.082 C 218.371 59.907,218.333 59.487,218.330 56.982 C 218.325 53.054,218.081 49.475,217.779 48.887 C 217.599 48.537,217.517 47.523,217.459 44.917 C 217.384 41.579,217.210 40.333,216.817 40.333 C 216.733 40.333,216.666 38.886,216.666 37.042 C 216.665 33.730,216.516 32.559,216.073 32.390 C 215.876 32.314,215.833 31.738,215.833 29.182 C 215.833 26.981,215.775 26.008,215.633 25.867 C 215.424 25.657,213.803 25.586,213.611 25.778 M222.842 30.240 C 222.732 30.372,222.442 30.503,222.196 30.532 C 221.792 30.578,221.745 30.657,221.700 31.359 C 221.657 32.024,221.591 32.149,221.242 32.237 C 220.886 32.326,220.833 32.434,220.833 33.068 C 220.833 33.707,220.782 33.810,220.417 33.902 C 220.050 33.994,220.000 34.096,220.000 34.753 C 220.000 35.386,219.950 35.500,219.670 35.500 C 219.173 35.500,219.136 35.893,219.196 40.549 C 219.248 44.667,219.262 44.820,219.616 45.196 C 219.968 45.571,219.984 45.735,220.033 49.474 C 220.082 53.277,220.092 53.370,220.458 53.667 C 220.826 53.964,220.833 54.041,220.836 57.527 C 220.838 61.405,220.881 61.773,221.351 61.922 C 221.649 62.017,221.667 62.243,221.667 65.944 C 221.667 69.507,221.695 69.906,221.979 70.308 C 222.255 70.699,222.300 71.191,222.375 74.583 C 222.462 78.493,222.526 79.000,222.934 79.000 C 223.124 79.000,223.167 79.555,223.170 82.042 C 223.174 85.317,223.511 89.244,223.813 89.547 C 224.142 89.876,224.043 90.783,223.667 90.882 C 223.483 90.930,223.333 91.088,223.333 91.234 C 223.333 91.403,223.188 91.500,222.935 91.500 C 222.649 91.500,222.507 91.618,222.432 91.917 C 222.374 92.146,222.206 92.333,222.058 92.333 C 221.909 92.333,221.614 92.521,221.402 92.750 C 221.178 92.992,220.831 93.167,220.576 93.167 C 220.276 93.167,220.108 93.273,220.048 93.500 C 220.000 93.683,219.861 93.833,219.738 93.833 C 219.615 93.833,219.331 94.018,219.105 94.243 C 218.880 94.469,218.499 94.702,218.260 94.762 C 218.020 94.822,217.752 95.008,217.662 95.175 C 217.573 95.341,217.354 95.524,217.175 95.581 C 216.997 95.637,216.804 95.830,216.747 96.009 C 216.685 96.206,216.494 96.333,216.261 96.333 C 216.051 96.333,215.700 96.511,215.481 96.728 C 215.262 96.944,214.915 97.174,214.708 97.239 C 214.489 97.307,214.333 97.490,214.333 97.678 C 214.333 97.904,214.218 98.000,213.946 98.000 C 213.733 98.000,213.386 98.184,213.175 98.408 C 212.964 98.632,212.632 98.838,212.438 98.866 C 212.243 98.894,212.009 99.085,211.919 99.292 C 211.818 99.522,211.608 99.667,211.377 99.667 C 211.119 99.667,211.000 99.766,211.000 99.981 C 211.000 100.209,210.839 100.326,210.421 100.405 C 210.103 100.464,209.747 100.650,209.630 100.816 C 209.513 100.983,209.248 101.172,209.042 101.237 C 208.831 101.304,208.667 101.491,208.667 101.663 C 208.667 101.893,208.495 102.000,207.988 102.085 C 207.615 102.148,207.268 102.311,207.216 102.446 C 207.164 102.581,206.937 102.762,206.711 102.848 C 206.486 102.934,206.262 103.153,206.214 103.335 C 206.167 103.518,205.992 103.667,205.826 103.667 C 205.660 103.667,205.382 103.848,205.207 104.070 C 205.033 104.291,204.671 104.497,204.404 104.528 C 204.047 104.569,203.902 104.683,203.863 104.958 C 203.825 105.229,203.698 105.333,203.408 105.333 C 203.119 105.333,202.977 105.450,202.902 105.750 C 202.816 106.090,202.695 106.167,202.241 106.167 C 201.889 106.167,201.606 106.280,201.468 106.476 C 201.348 106.646,201.081 106.839,200.875 106.904 C 200.656 106.973,200.500 107.157,200.500 107.345 C 200.500 107.522,200.402 107.667,200.283 107.667 C 199.968 107.667,199.169 108.061,199.168 108.217 C 199.167 108.290,198.904 108.460,198.583 108.594 C 198.262 108.728,198.000 108.949,198.000 109.086 C 198.000 109.222,197.853 109.333,197.674 109.333 C 197.434 109.333,197.320 109.486,197.239 109.917 C 197.075 110.793,197.283 111.667,197.656 111.667 C 197.847 111.667,198.004 111.828,198.070 112.091 C 198.220 112.688,200.215 112.661,200.301 112.062 C 200.339 111.789,200.506 111.682,201.015 111.600 C 201.381 111.542,201.719 111.391,201.767 111.266 C 201.815 111.140,202.075 110.993,202.344 110.940 C 202.692 110.870,202.833 110.744,202.833 110.504 C 202.833 110.258,202.943 110.167,203.239 110.167 C 203.845 110.167,204.500 109.874,204.500 109.602 C 204.500 109.451,204.755 109.320,205.187 109.247 C 205.660 109.167,205.900 109.032,205.956 108.815 C 206.005 108.631,206.187 108.499,206.394 108.498 C 207.036 108.494,207.487 108.302,207.586 107.993 C 207.639 107.825,207.848 107.664,208.050 107.636 C 208.280 107.603,208.436 107.447,208.469 107.217 C 208.513 106.908,208.643 106.843,209.302 106.800 C 209.961 106.758,210.092 106.693,210.135 106.384 C 210.178 106.084,210.313 106.009,210.885 105.967 C 211.464 105.925,211.592 105.852,211.637 105.542 C 211.681 105.226,211.793 105.167,212.344 105.167 C 212.817 105.167,213.055 105.075,213.205 104.833 C 213.320 104.650,213.527 104.499,213.665 104.497 C 213.803 104.496,214.085 104.316,214.291 104.099 C 214.497 103.882,214.928 103.655,215.250 103.594 C 215.666 103.516,215.833 103.397,215.833 103.178 C 215.833 102.943,216.006 102.845,216.575 102.760 C 217.083 102.684,217.347 102.553,217.413 102.345 C 217.477 102.145,217.741 102.004,218.188 101.933 C 218.652 101.858,218.893 101.726,218.948 101.514 C 219.003 101.304,219.243 101.170,219.698 101.098 C 220.170 101.022,220.392 100.894,220.453 100.662 C 220.513 100.431,220.681 100.333,221.019 100.333 C 221.421 100.333,221.500 100.265,221.500 99.917 C 221.500 99.534,221.561 99.500,222.247 99.500 C 222.904 99.500,223.006 99.450,223.098 99.083 C 223.179 98.763,223.311 98.667,223.671 98.667 C 224.283 98.667,224.667 98.513,224.667 98.267 C 224.667 98.158,225.004 97.979,225.417 97.869 C 225.829 97.758,226.167 97.589,226.167 97.492 C 226.167 97.395,226.392 97.238,226.667 97.142 C 226.986 97.030,227.167 96.853,227.167 96.650 C 227.167 96.416,227.286 96.333,227.625 96.331 C 228.410 96.327,228.833 96.146,228.833 95.814 C 228.833 95.568,228.956 95.500,229.405 95.500 C 229.947 95.500,230.500 95.157,230.500 94.821 C 230.500 94.736,230.633 94.667,230.796 94.667 C 231.105 94.667,231.504 94.282,231.834 93.665 C 232.056 93.250,231.921 91.863,231.582 91.083 C 231.446 90.771,231.330 89.518,231.273 87.750 C 231.187 85.071,230.990 83.833,230.650 83.833 C 230.568 83.833,230.497 82.840,230.493 81.625 C 230.485 79.140,230.324 78.027,229.933 77.742 C 229.713 77.580,229.667 77.173,229.667 75.377 C 229.667 72.809,229.563 72.152,229.141 72.042 C 228.858 71.967,228.833 71.747,228.833 69.243 C 228.833 66.588,228.824 66.514,228.417 66.030 C 228.011 65.549,228.000 65.465,228.000 62.946 C 228.000 60.348,227.888 59.833,227.321 59.833 C 227.232 59.833,227.167 58.600,227.167 56.917 C 227.167 54.292,227.136 53.969,226.856 53.689 C 226.584 53.417,226.535 53.029,226.469 50.631 C 226.402 48.154,226.361 47.849,226.053 47.519 C 225.746 47.189,225.704 46.879,225.631 44.368 C 225.561 41.945,225.504 41.492,225.192 40.882 C 224.896 40.303,224.832 39.879,224.824 38.465 C 224.808 35.740,224.574 33.121,224.298 32.595 C 224.107 32.231,224.089 32.008,224.220 31.660 C 224.359 31.293,224.337 31.147,224.112 30.922 C 223.958 30.767,223.754 30.497,223.660 30.320 C 223.456 29.940,223.118 29.907,222.842 30.240 M156.712 30.552 C 155.977 31.051,155.989 30.996,155.808 34.750 C 155.685 37.307,155.584 38.200,155.373 38.583 C 155.147 38.993,155.086 39.733,155.034 42.667 C 154.988 45.263,154.913 46.296,154.762 46.417 C 154.255 46.823,154.167 47.362,154.167 50.043 C 154.167 52.742,154.162 52.780,153.750 53.167 C 153.338 53.553,153.333 53.591,153.333 56.294 C 153.333 58.930,153.320 59.041,152.958 59.333 C 152.599 59.624,152.581 59.762,152.528 62.568 C 152.482 64.985,152.430 65.500,152.232 65.500 C 151.804 65.500,151.667 66.307,151.667 68.826 C 151.667 70.822,151.621 71.315,151.427 71.390 C 151.016 71.547,150.835 72.664,150.834 75.042 C 150.834 76.302,150.770 77.333,150.693 77.333 C 150.346 77.333,150.152 78.391,150.055 80.807 C 149.970 82.924,149.895 83.488,149.659 83.792 C 149.425 84.094,149.344 84.681,149.245 86.790 C 149.153 88.759,149.056 89.514,148.855 89.821 C 147.926 91.239,148.554 94.667,149.742 94.667 C 150.048 94.667,150.167 94.755,150.167 94.982 C 150.167 95.341,150.477 95.500,151.180 95.500 C 151.552 95.500,151.667 95.577,151.667 95.826 C 151.667 96.066,151.820 96.180,152.250 96.261 C 152.571 96.321,152.833 96.441,152.833 96.528 C 152.833 96.615,153.163 96.831,153.565 97.009 C 153.968 97.187,154.340 97.444,154.392 97.580 C 154.445 97.716,154.790 97.876,155.160 97.935 C 155.535 97.995,155.833 98.136,155.833 98.253 C 155.833 98.514,156.207 98.667,156.844 98.667 C 157.220 98.667,157.350 98.759,157.432 99.083 C 157.523 99.447,157.627 99.500,158.256 99.500 C 158.877 99.500,158.984 99.552,159.030 99.875 C 159.064 100.116,159.217 100.269,159.459 100.303 C 159.665 100.333,159.911 100.501,160.006 100.677 C 160.111 100.873,160.434 101.039,160.839 101.104 C 161.227 101.166,161.500 101.301,161.500 101.432 C 161.500 101.723,162.030 102.000,162.588 102.000 C 162.884 102.000,163.059 102.106,163.114 102.318 C 163.199 102.643,163.622 102.827,164.292 102.831 C 164.515 102.832,164.667 102.936,164.667 103.087 C 164.667 103.226,164.873 103.429,165.125 103.538 C 165.377 103.646,165.717 103.869,165.880 104.032 C 166.043 104.196,166.380 104.380,166.630 104.442 C 166.879 104.503,167.181 104.692,167.301 104.860 C 167.441 105.057,167.726 105.167,168.097 105.167 C 168.560 105.167,168.706 105.249,168.833 105.583 C 168.966 105.932,169.101 106.000,169.659 106.000 C 170.232 106.000,170.342 106.059,170.432 106.417 C 170.514 106.745,170.642 106.833,171.036 106.833 C 171.370 106.833,171.644 106.971,171.863 107.250 C 172.043 107.479,172.342 107.667,172.528 107.667 C 172.719 107.667,172.900 107.804,172.948 107.985 C 173.032 108.306,173.455 108.494,174.106 108.498 C 174.313 108.499,174.495 108.631,174.544 108.815 C 174.600 109.032,174.840 109.167,175.313 109.247 C 175.691 109.310,176.000 109.426,176.000 109.503 C 176.000 109.825,176.563 110.167,177.095 110.167 C 177.558 110.167,177.667 110.231,177.667 110.504 C 177.667 110.746,177.809 110.870,178.167 110.942 C 178.442 110.997,178.667 111.137,178.667 111.253 C 178.667 111.513,179.040 111.667,179.669 111.667 C 180.034 111.667,180.156 111.753,180.197 112.042 C 180.246 112.387,180.337 112.417,181.333 112.417 C 182.330 112.417,182.421 112.387,182.470 112.042 C 182.503 111.809,182.639 111.667,182.827 111.667 C 183.195 111.667,183.333 111.348,183.333 110.500 C 183.333 109.645,183.195 109.333,182.816 109.333 C 182.611 109.333,182.500 109.216,182.500 109.000 C 182.500 108.757,182.389 108.667,182.089 108.667 C 181.863 108.667,181.422 108.442,181.109 108.167 C 180.796 107.892,180.418 107.667,180.270 107.667 C 180.111 107.667,180.000 107.529,180.000 107.333 C 180.000 107.148,179.889 107.000,179.750 107.000 C 179.612 107.000,179.344 106.844,179.154 106.654 C 178.964 106.464,178.555 106.267,178.246 106.217 C 177.837 106.151,177.671 106.030,177.634 105.771 C 177.603 105.555,177.442 105.397,177.221 105.365 C 177.022 105.337,176.739 105.130,176.592 104.907 C 176.396 104.607,176.176 104.500,175.758 104.500 C 175.296 104.500,175.180 104.430,175.137 104.125 C 175.104 103.898,174.950 103.731,174.745 103.702 C 174.559 103.675,174.334 103.488,174.245 103.286 C 174.156 103.084,173.933 102.892,173.750 102.859 C 173.567 102.827,173.267 102.663,173.083 102.494 C 172.900 102.326,172.544 102.111,172.292 102.015 C 172.040 101.920,171.833 101.727,171.833 101.587 C 171.833 101.448,171.725 101.333,171.592 101.333 C 171.459 101.333,171.143 101.141,170.888 100.905 C 170.634 100.670,170.218 100.435,169.963 100.384 C 169.654 100.323,169.500 100.188,169.500 99.979 C 169.500 99.766,169.381 99.667,169.123 99.667 C 168.892 99.667,168.682 99.522,168.581 99.292 C 168.462 99.019,168.235 98.894,167.750 98.833 C 167.217 98.767,167.073 98.675,167.030 98.375 C 166.992 98.104,166.865 98.000,166.572 98.000 C 166.285 98.000,166.167 97.908,166.167 97.684 C 166.167 97.363,165.861 97.167,165.359 97.167 C 165.205 97.167,164.938 96.979,164.766 96.750 C 164.594 96.521,164.314 96.333,164.143 96.333 C 163.971 96.333,163.833 96.216,163.833 96.069 C 163.833 95.923,163.613 95.721,163.344 95.620 C 163.075 95.518,162.820 95.302,162.778 95.139 C 162.726 94.942,162.472 94.806,162.017 94.733 C 161.502 94.651,161.333 94.548,161.333 94.315 C 161.333 94.128,161.175 93.967,160.932 93.906 C 160.712 93.850,160.494 93.661,160.448 93.486 C 160.383 93.239,160.215 93.167,159.700 93.167 C 159.131 93.167,159.021 93.107,158.932 92.750 C 158.864 92.483,158.710 92.333,158.500 92.333 C 158.290 92.333,158.136 92.184,158.068 91.917 C 158.004 91.660,157.845 91.500,157.656 91.500 C 156.663 91.500,155.820 87.463,156.740 87.110 C 157.195 86.936,157.331 85.761,157.332 82.027 C 157.333 78.414,157.344 78.295,157.693 78.012 C 158.039 77.732,158.056 77.566,158.133 73.822 C 158.208 70.207,158.239 69.889,158.560 69.455 C 158.881 69.021,158.911 68.713,158.973 65.205 C 159.030 62.023,159.082 61.393,159.301 61.233 C 159.654 60.975,159.814 59.377,159.825 56.018 C 159.832 53.615,159.868 53.261,160.125 53.074 C 160.386 52.883,160.422 52.448,160.467 48.972 C 160.516 45.193,160.528 45.075,160.884 44.801 C 161.245 44.524,161.250 44.454,161.250 40.135 L 161.250 35.750 160.875 35.585 C 160.598 35.464,160.500 35.281,160.500 34.884 C 160.500 34.574,160.367 34.220,160.186 34.048 C 160.013 33.884,159.820 33.439,159.757 33.058 C 159.677 32.573,159.547 32.341,159.321 32.282 C 159.111 32.227,159.000 32.053,159.000 31.776 C 159.000 30.946,158.714 30.500,158.181 30.500 C 157.909 30.500,157.640 30.425,157.583 30.333 C 157.442 30.104,157.332 30.132,156.712 30.552 " stroke="none" fill="#144e86" fill-rule="evenodd"></path><path id="path2" d="M156.447 30.379 C 155.924 30.845,155.836 31.023,155.852 31.588 L 155.872 32.250 155.993 31.623 C 156.060 31.278,156.145 30.973,156.182 30.944 C 157.013 30.304,157.364 30.151,157.584 30.334 C 157.959 30.645,158.264 30.454,157.927 30.118 C 157.510 29.701,157.135 29.767,156.447 30.379 M222.700 30.033 C 222.376 30.357,222.471 30.578,222.805 30.276 C 223.204 29.915,223.449 29.927,223.660 30.320 C 223.754 30.497,223.952 30.761,224.099 30.909 C 224.291 31.101,224.331 31.304,224.239 31.630 C 224.169 31.879,224.122 32.121,224.135 32.167 C 224.148 32.212,224.268 32.550,224.403 32.917 L 224.648 33.583 224.642 32.346 C 224.633 30.572,223.505 29.228,222.700 30.033 M155.720 34.500 C 155.720 35.096,155.750 35.340,155.787 35.042 C 155.824 34.744,155.824 34.256,155.787 33.958 C 155.750 33.660,155.720 33.904,155.720 34.500 M147.667 35.397 C 147.667 36.908,147.650 36.979,147.292 37.030 C 146.929 37.082,146.915 37.151,146.870 39.125 C 146.827 40.985,146.796 41.167,146.514 41.167 C 146.096 41.167,146.005 41.604,146.002 43.625 C 146.000 45.044,145.957 45.333,145.746 45.333 C 145.337 45.333,145.167 46.074,145.167 47.844 C 145.167 49.117,145.115 49.500,144.943 49.500 C 144.518 49.500,144.333 50.337,144.333 52.258 C 144.333 54.013,144.308 54.167,144.021 54.167 C 143.621 54.167,143.500 54.749,143.500 56.668 C 143.500 57.947,143.462 58.138,143.192 58.208 C 142.816 58.307,142.671 59.058,142.669 60.918 C 142.667 62.072,142.621 62.281,142.333 62.461 C 142.032 62.650,142.000 62.850,142.000 64.564 C 142.000 66.345,141.977 66.474,141.625 66.708 C 141.264 66.947,141.248 67.066,141.194 69.821 C 141.138 72.674,141.137 72.686,140.736 72.839 C 140.342 72.988,140.333 73.035,140.333 74.913 C 140.333 75.983,140.265 76.833,140.179 76.833 C 139.658 76.833,139.500 77.379,139.500 79.171 C 139.500 80.884,139.477 81.008,139.083 81.402 C 138.685 81.800,138.667 81.907,138.667 83.814 C 138.667 85.757,138.657 85.812,138.292 85.863 C 137.930 85.915,137.915 85.988,137.870 87.857 C 137.829 89.569,137.788 89.806,137.520 89.876 C 137.133 89.978,137.000 90.647,137.000 92.501 C 137.000 93.781,136.962 93.971,136.692 94.042 C 136.316 94.140,136.171 94.891,136.169 96.752 C 136.167 97.905,136.121 98.115,135.833 98.295 C 135.534 98.482,135.500 98.683,135.500 100.266 C 135.500 101.894,135.471 102.053,135.125 102.333 C 134.772 102.618,134.747 102.781,134.696 105.048 L 134.643 107.459 135.155 107.638 C 135.436 107.736,135.667 107.883,135.667 107.965 C 135.667 108.260,136.538 108.500,137.606 108.500 C 138.515 108.500,138.744 108.559,138.981 108.852 C 139.231 109.160,139.495 109.214,141.133 109.292 C 142.160 109.341,143.000 109.449,143.000 109.532 C 143.000 109.860,144.197 110.167,145.475 110.167 C 146.618 110.167,146.805 110.208,146.875 110.475 C 146.971 110.843,147.632 111.000,149.085 111.000 C 149.988 111.000,150.140 111.045,150.215 111.333 C 150.294 111.636,150.444 111.667,151.859 111.670 C 153.299 111.672,153.446 111.704,153.809 112.086 C 154.158 112.454,154.339 112.500,155.426 112.500 C 156.500 112.500,156.704 112.551,157.099 112.917 C 157.526 113.312,157.649 113.333,159.513 113.333 C 161.423 113.333,161.478 113.344,161.530 113.708 C 161.580 114.061,161.672 114.086,163.071 114.132 C 164.403 114.175,164.597 114.223,164.938 114.590 C 165.280 114.959,165.449 115.000,166.639 115.000 C 167.785 115.000,167.972 115.041,168.042 115.308 C 168.140 115.683,168.801 115.833,170.354 115.833 C 171.044 115.833,171.500 115.903,171.500 116.009 C 171.500 116.324,172.635 116.667,173.677 116.667 C 174.450 116.667,174.819 116.752,175.194 117.019 C 175.754 117.418,177.871 117.632,179.234 117.428 L 180.010 117.311 179.964 115.364 L 179.917 113.417 179.217 113.366 C 178.697 113.328,178.490 113.232,178.414 112.991 C 178.333 112.735,178.158 112.667,177.584 112.667 C 176.956 112.667,176.849 112.615,176.803 112.292 C 176.757 111.966,176.637 111.910,175.897 111.867 C 175.246 111.829,174.952 111.720,174.659 111.409 C 174.368 111.099,174.103 111.000,173.566 111.000 C 172.957 111.000,172.849 110.947,172.803 110.625 C 172.758 110.306,172.634 110.242,171.969 110.200 C 171.310 110.157,171.179 110.092,171.135 109.783 C 171.091 109.473,170.961 109.409,170.292 109.366 C 169.746 109.331,169.500 109.242,169.500 109.080 C 169.500 108.778,168.979 108.500,168.413 108.500 C 168.161 108.500,167.845 108.345,167.679 108.141 C 167.463 107.874,167.149 107.762,166.453 107.704 C 165.655 107.638,165.511 107.575,165.467 107.272 C 165.425 106.975,165.286 106.908,164.625 106.866 C 163.969 106.824,163.833 106.759,163.833 106.491 C 163.833 106.213,163.714 106.167,163.000 106.167 C 162.222 106.167,162.167 106.139,162.167 105.750 C 162.167 105.362,162.110 105.333,161.345 105.333 C 160.620 105.333,160.517 105.289,160.470 104.958 C 160.424 104.632,160.304 104.577,159.542 104.533 C 158.923 104.497,158.667 104.414,158.667 104.247 C 158.667 103.896,158.115 103.667,157.273 103.667 C 156.622 103.667,156.516 103.617,156.470 103.292 C 156.424 102.972,156.301 102.909,155.625 102.866 C 154.986 102.825,154.833 102.756,154.833 102.509 C 154.833 102.160,154.518 102.000,153.831 102.000 C 153.511 102.000,153.323 101.897,153.256 101.685 C 153.153 101.360,152.708 101.173,152.027 101.169 C 151.812 101.168,151.506 101.005,151.346 100.808 C 151.129 100.540,150.815 100.429,150.111 100.370 C 149.326 100.305,149.167 100.239,149.167 99.979 C 149.167 99.715,149.037 99.667,148.333 99.667 C 147.556 99.667,147.500 99.639,147.500 99.250 C 147.500 98.869,147.438 98.833,146.768 98.833 C 146.126 98.833,146.023 98.782,145.932 98.417 C 145.839 98.050,145.738 98.000,145.080 98.000 C 144.232 98.000,144.080 97.696,144.708 97.257 C 145.063 97.009,145.086 96.864,145.137 94.597 C 145.185 92.467,145.224 92.191,145.487 92.122 C 145.882 92.018,146.000 91.337,146.000 89.146 C 146.000 87.556,146.041 87.292,146.333 87.000 C 146.637 86.696,146.667 86.444,146.667 84.178 C 146.667 81.725,146.672 81.689,147.042 81.637 C 147.408 81.585,147.418 81.528,147.463 79.208 C 147.488 77.902,147.577 76.833,147.659 76.833 C 148.208 76.833,148.333 76.303,148.333 73.970 C 148.333 71.719,148.349 71.613,148.750 71.136 C 149.158 70.651,149.167 70.585,149.167 67.841 C 149.167 65.653,149.217 64.999,149.399 64.848 C 149.756 64.552,149.871 63.788,149.947 61.207 C 150.014 58.955,150.038 58.810,150.425 58.423 C 150.821 58.028,150.833 57.940,150.833 55.602 C 150.833 53.390,150.859 53.181,151.146 53.090 C 151.550 52.962,151.663 52.260,151.665 49.853 C 151.667 48.094,151.694 47.932,152.042 47.631 C 152.391 47.328,152.420 47.150,152.471 44.986 C 152.518 42.959,152.563 42.645,152.824 42.505 C 153.428 42.182,153.419 40.333,152.814 40.333 C 152.568 40.333,152.500 40.210,152.500 39.764 C 152.500 38.978,152.353 38.667,151.982 38.667 C 151.750 38.667,151.666 38.546,151.664 38.208 C 151.660 37.423,151.479 37.000,151.147 37.000 C 150.892 37.000,150.833 36.875,150.833 36.330 C 150.833 35.780,150.760 35.626,150.425 35.474 C 150.104 35.327,150.006 35.142,149.967 34.602 L 149.917 33.917 148.792 33.867 L 147.667 33.818 147.667 35.397 M230.604 34.090 C 230.547 34.239,230.500 34.562,230.500 34.807 C 230.500 35.111,230.380 35.307,230.125 35.419 C 229.835 35.546,229.738 35.745,229.699 36.292 C 229.658 36.849,229.582 37.000,229.342 37.000 C 228.980 37.000,228.833 37.317,228.833 38.097 C 228.833 38.556,228.768 38.667,228.500 38.667 C 228.233 38.667,228.167 38.778,228.167 39.227 C 228.167 39.629,228.050 39.874,227.750 40.100 C 227.378 40.379,227.333 40.533,227.333 41.527 C 227.333 42.518,227.380 42.679,227.750 42.970 C 228.154 43.288,228.167 43.360,228.169 45.357 C 228.171 47.596,228.257 48.167,228.588 48.167 C 228.753 48.167,228.817 48.780,228.860 50.765 C 228.913 53.187,228.941 53.383,229.275 53.653 C 229.605 53.920,229.638 54.127,229.692 56.292 C 229.744 58.406,229.785 58.679,230.104 59.028 C 230.430 59.387,230.465 59.662,230.555 62.658 C 230.641 65.525,230.690 65.949,230.979 66.341 C 231.259 66.720,231.315 67.114,231.362 69.074 C 231.413 71.213,231.441 71.383,231.792 71.667 C 232.147 71.954,232.167 72.089,232.167 74.195 C 232.167 76.337,232.182 76.437,232.583 76.869 C 232.984 77.301,233.000 77.404,233.000 79.504 C 233.000 81.687,233.134 82.333,233.585 82.333 C 233.780 82.333,233.833 82.786,233.871 84.792 C 233.916 87.198,233.925 87.251,234.292 87.303 C 234.660 87.356,234.667 87.397,234.667 89.701 C 234.667 91.987,234.677 92.055,235.083 92.431 C 235.492 92.810,235.500 92.865,235.500 95.314 C 235.500 97.770,235.506 97.811,235.875 97.882 C 236.081 97.922,235.894 97.965,235.458 97.977 C 234.731 97.998,234.667 98.034,234.667 98.417 C 234.667 98.806,234.611 98.833,233.833 98.833 C 233.056 98.833,233.000 98.861,233.000 99.250 C 233.000 99.637,232.943 99.667,232.192 99.667 C 231.615 99.667,231.305 99.756,231.102 99.979 C 230.947 100.151,230.505 100.334,230.120 100.385 C 229.700 100.441,229.309 100.617,229.142 100.823 C 228.972 101.032,228.667 101.167,228.362 101.167 C 227.649 101.167,227.333 101.323,227.333 101.675 C 227.333 101.923,227.181 101.992,226.542 102.033 C 225.872 102.075,225.742 102.140,225.698 102.450 C 225.654 102.759,225.523 102.824,224.865 102.866 C 224.200 102.909,224.075 102.973,224.030 103.292 C 223.984 103.615,223.877 103.667,223.249 103.667 C 222.349 103.667,221.667 103.913,221.667 104.237 C 221.667 104.411,221.437 104.496,220.875 104.533 C 220.205 104.575,220.075 104.640,220.031 104.950 C 219.987 105.259,219.857 105.324,219.198 105.366 C 218.533 105.409,218.409 105.473,218.363 105.792 C 218.317 106.117,218.211 106.167,217.556 106.167 C 216.942 106.167,216.786 106.229,216.715 106.500 C 216.644 106.770,216.488 106.833,215.890 106.833 C 215.335 106.833,215.053 106.932,214.756 107.229 C 214.515 107.469,214.064 107.669,213.605 107.738 C 213.064 107.819,212.821 107.943,212.747 108.176 C 212.679 108.390,212.492 108.501,212.197 108.502 C 211.423 108.506,211.000 108.689,211.000 109.019 C 211.000 109.279,210.874 109.333,210.269 109.333 C 209.674 109.333,209.488 109.410,209.265 109.750 C 209.065 110.055,208.845 110.167,208.442 110.167 C 208.070 110.167,207.764 110.302,207.500 110.583 C 207.216 110.886,206.935 111.000,206.475 111.000 C 205.983 111.000,205.780 111.093,205.568 111.417 C 205.346 111.756,205.160 111.833,204.567 111.833 C 203.930 111.833,203.827 111.885,203.735 112.250 C 203.644 112.613,203.539 112.667,202.921 112.667 C 202.476 112.667,202.061 112.785,201.809 112.984 C 201.587 113.158,201.221 113.327,200.994 113.359 C 200.587 113.416,200.583 113.435,200.536 115.366 L 200.490 117.316 201.095 117.430 C 202.360 117.667,204.879 117.413,205.138 117.021 C 205.342 116.715,205.536 116.666,206.562 116.664 C 208.068 116.662,208.500 116.546,208.500 116.147 C 208.500 115.865,208.640 115.833,209.896 115.833 C 211.696 115.833,212.356 115.698,212.458 115.308 C 212.528 115.041,212.715 115.000,213.860 115.000 C 215.048 115.000,215.224 114.958,215.598 114.583 C 215.977 114.204,216.143 114.167,217.428 114.167 C 218.782 114.167,218.848 114.149,219.000 113.750 C 219.156 113.339,219.186 113.333,221.050 113.333 C 222.853 113.333,222.960 113.314,223.333 112.917 C 223.686 112.541,223.854 112.500,225.026 112.500 C 226.275 112.500,226.331 112.483,226.432 112.083 C 226.534 111.674,226.566 111.667,228.171 111.667 C 229.945 111.667,230.333 111.589,230.333 111.232 C 230.333 111.058,230.599 111.000,231.396 111.000 C 232.868 111.000,233.528 110.844,233.625 110.475 C 233.695 110.209,233.881 110.167,234.995 110.167 C 236.299 110.167,237.279 109.942,237.583 109.573 C 237.685 109.450,238.433 109.336,239.496 109.283 C 241.001 109.206,241.280 109.146,241.522 108.847 C 241.757 108.557,241.990 108.500,242.938 108.500 C 243.932 108.500,244.116 108.450,244.420 108.096 C 244.632 107.849,244.988 107.672,245.342 107.638 L 245.917 107.583 245.892 105.796 C 245.872 104.355,245.799 103.867,245.517 103.285 C 245.290 102.817,245.162 102.212,245.153 101.572 C 245.129 99.923,244.915 98.639,244.630 98.430 C 244.421 98.277,244.352 97.834,244.307 96.346 C 244.254 94.604,244.221 94.437,243.875 94.208 C 243.531 93.980,243.500 93.832,243.500 92.407 C 243.500 90.734,243.323 90.000,242.921 90.000 C 242.709 90.000,242.667 89.706,242.667 88.239 C 242.667 86.449,242.516 85.833,242.077 85.833 C 241.877 85.833,241.833 85.488,241.833 83.913 C 241.833 82.024,241.826 81.989,241.422 81.835 C 241.021 81.683,241.010 81.631,240.964 79.714 C 240.918 77.821,240.903 77.748,240.542 77.697 C 240.174 77.645,240.167 77.599,240.167 75.406 C 240.167 73.350,240.140 73.153,239.833 72.961 C 239.538 72.777,239.500 72.571,239.498 71.168 C 239.495 69.298,239.406 68.879,238.982 68.744 C 238.701 68.655,238.666 68.462,238.659 66.947 C 238.649 64.561,238.425 62.813,238.099 62.574 C 237.888 62.420,237.833 62.052,237.833 60.784 C 237.833 59.070,237.659 58.333,237.254 58.333 C 237.042 58.333,237.000 58.039,237.000 56.572 C 237.000 54.782,236.849 54.167,236.411 54.167 C 236.212 54.167,236.167 53.841,236.167 52.406 C 236.167 50.616,236.016 50.000,235.577 50.000 C 235.377 50.000,235.333 49.653,235.333 48.066 C 235.333 46.201,235.318 46.120,234.917 45.804 C 234.520 45.492,234.500 45.392,234.500 43.762 C 234.500 42.165,234.472 42.018,234.083 41.599 C 233.689 41.174,233.667 41.047,233.667 39.226 C 233.667 37.454,233.641 37.295,233.339 37.216 C 233.047 37.140,233.007 36.960,232.964 35.524 L 232.917 33.917 231.812 33.868 C 230.917 33.828,230.688 33.870,230.604 34.090 M224.712 35.500 C 224.712 35.912,224.745 36.081,224.784 35.875 C 224.824 35.669,224.824 35.331,224.784 35.125 C 224.745 34.919,224.712 35.087,224.712 35.500 M155.340 38.075 C 155.213 38.228,155.089 38.780,155.065 39.302 C 155.021 40.234,155.023 40.237,155.141 39.477 C 155.207 39.052,155.359 38.586,155.480 38.441 C 155.600 38.296,155.670 38.092,155.635 37.987 C 155.594 37.864,155.489 37.896,155.340 38.075 M169.383 39.500 C 169.383 40.004,169.415 40.210,169.453 39.958 C 169.491 39.706,169.491 39.294,169.453 39.042 C 169.415 38.790,169.383 38.996,169.383 39.500 M224.847 39.833 C 224.847 40.063,224.996 40.512,225.179 40.833 L 225.510 41.417 225.402 40.833 C 225.343 40.512,225.193 40.063,225.070 39.833 L 224.847 39.417 224.847 39.833 M216.672 40.042 C 216.669 40.202,216.735 40.333,216.819 40.333 C 216.903 40.333,217.048 40.540,217.140 40.792 C 217.283 41.184,217.309 41.199,217.320 40.893 C 217.327 40.697,217.186 40.360,217.006 40.143 C 216.731 39.813,216.677 39.797,216.672 40.042 M163.039 42.000 C 163.039 42.321,163.073 42.452,163.115 42.292 C 163.157 42.131,163.157 41.869,163.115 41.708 C 163.073 41.548,163.039 41.679,163.039 42.000 M225.539 42.167 C 225.539 42.487,225.573 42.619,225.615 42.458 C 225.657 42.298,225.657 42.035,225.615 41.875 C 225.573 41.715,225.539 41.846,225.539 42.167 M168.958 42.423 C 168.624 42.870,168.597 43.000,168.837 43.000 C 168.994 43.000,169.403 42.177,169.296 42.077 C 169.271 42.052,169.119 42.208,168.958 42.423 M211.177 42.857 C 211.171 43.007,211.314 43.307,211.494 43.523 C 211.675 43.740,211.825 43.827,211.828 43.718 C 211.831 43.609,211.753 43.470,211.655 43.409 C 211.557 43.349,211.412 43.138,211.332 42.941 C 211.229 42.685,211.185 42.661,211.177 42.857 M161.167 44.313 C 161.167 44.485,160.998 44.744,160.792 44.888 C 160.585 45.031,160.505 45.153,160.613 45.158 C 160.912 45.171,161.333 44.682,161.333 44.321 C 161.333 44.145,161.296 44.000,161.250 44.000 C 161.204 44.000,161.167 44.141,161.167 44.313 M219.267 44.833 C 219.299 45.153,219.453 45.509,219.609 45.623 C 220.037 45.936,220.104 45.716,219.710 45.291 C 219.519 45.085,219.328 44.767,219.286 44.583 C 219.243 44.400,219.235 44.512,219.267 44.833 M154.514 46.319 C 154.323 46.510,154.169 46.798,154.172 46.958 C 154.176 47.213,154.201 47.208,154.368 46.917 C 154.473 46.733,154.677 46.496,154.821 46.389 C 154.965 46.282,155.033 46.144,154.972 46.083 C 154.911 46.022,154.705 46.128,154.514 46.319 M225.872 47.333 C 226.082 47.670,226.333 47.779,226.333 47.533 C 226.333 47.360,225.972 47.000,225.799 47.000 C 225.724 47.000,225.758 47.150,225.872 47.333 M162.212 51.500 C 162.212 51.913,162.245 52.081,162.284 51.875 C 162.324 51.669,162.324 51.331,162.284 51.125 C 162.245 50.919,162.212 51.087,162.212 51.500 M160.333 52.658 C 160.333 52.837,160.203 53.057,160.043 53.146 C 159.883 53.235,159.809 53.365,159.878 53.434 C 160.039 53.595,160.488 53.006,160.495 52.625 C 160.498 52.465,160.462 52.333,160.417 52.333 C 160.371 52.333,160.333 52.480,160.333 52.658 M153.713 52.875 C 153.313 53.392,153.319 53.548,153.723 53.179 C 153.967 52.957,154.167 52.751,154.167 52.721 C 154.167 52.583,153.858 52.688,153.713 52.875 M220.011 53.282 C 220.000 53.637,220.637 54.252,220.822 54.067 C 220.872 54.016,220.778 53.899,220.613 53.807 C 220.447 53.714,220.247 53.476,220.167 53.277 L 220.021 52.917 220.011 53.282 M161.869 57.150 C 161.601 57.900,161.614 57.983,161.928 57.534 C 162.072 57.329,162.163 57.031,162.130 56.872 C 162.090 56.675,162.006 56.763,161.869 57.150 M211.872 58.667 C 211.872 58.987,211.906 59.119,211.948 58.958 C 211.990 58.798,211.990 58.535,211.948 58.375 C 211.906 58.215,211.872 58.346,211.872 58.667 M168.109 58.767 C 167.751 59.258,167.884 59.551,168.246 59.071 C 168.453 58.798,168.591 58.322,168.458 58.339 C 168.435 58.341,168.278 58.534,168.109 58.767 M152.662 59.342 C 152.561 59.530,152.512 59.811,152.553 59.967 C 152.608 60.175,152.633 60.153,152.647 59.884 C 152.658 59.683,152.833 59.402,153.037 59.259 C 153.334 59.051,153.352 59.000,153.126 59.000 C 152.972 59.000,152.763 59.154,152.662 59.342 M159.709 59.750 C 159.711 60.117,159.745 60.247,159.785 60.040 C 159.824 59.832,159.823 59.532,159.781 59.373 C 159.739 59.214,159.707 59.383,159.709 59.750 M159.278 61.215 C 159.110 61.387,158.997 61.553,159.028 61.584 C 159.132 61.688,159.702 61.189,159.642 61.045 C 159.610 60.967,159.446 61.043,159.278 61.215 M220.853 61.508 C 220.828 61.837,221.157 62.170,221.492 62.155 C 221.665 62.148,221.630 62.086,221.383 61.967 C 221.181 61.869,220.984 61.668,220.944 61.520 C 220.883 61.289,220.869 61.288,220.853 61.508 M152.011 65.317 C 151.822 65.584,151.671 65.902,151.677 66.026 C 151.683 66.149,151.756 66.081,151.839 65.875 C 151.921 65.669,152.104 65.500,152.245 65.500 C 152.389 65.500,152.500 65.355,152.500 65.167 C 152.500 64.720,152.419 64.745,152.011 65.317 M228.346 65.958 C 228.568 66.210,228.769 66.448,228.792 66.486 C 228.815 66.524,228.833 66.436,228.833 66.290 C 228.833 65.985,228.399 65.500,228.126 65.500 C 228.025 65.500,228.124 65.706,228.346 65.958 M158.875 68.417 C 158.877 68.783,158.911 68.914,158.951 68.706 C 158.991 68.499,158.990 68.199,158.948 68.040 C 158.906 67.880,158.874 68.050,158.875 68.417 M219.167 68.494 C 219.167 68.583,219.335 68.743,219.542 68.852 C 219.915 69.047,219.915 69.047,219.599 68.691 C 219.246 68.294,219.167 68.257,219.167 68.494 M158.442 69.610 C 158.273 69.837,158.181 70.069,158.238 70.126 C 158.401 70.290,158.872 69.734,158.808 69.452 C 158.764 69.257,158.677 69.295,158.442 69.610 M221.670 70.183 C 221.668 70.329,221.817 70.584,222.000 70.750 C 222.425 71.135,222.425 70.877,222.000 70.333 C 221.763 70.030,221.673 69.989,221.670 70.183 M150.904 71.743 C 150.737 72.408,150.901 72.555,151.101 71.918 C 151.201 71.596,151.221 71.333,151.145 71.333 C 151.069 71.333,150.960 71.518,150.904 71.743 M228.839 71.606 C 228.835 71.819,228.961 71.995,229.153 72.045 C 229.328 72.091,229.505 72.306,229.547 72.522 C 229.617 72.896,229.622 72.897,229.644 72.551 C 229.656 72.350,229.482 71.975,229.255 71.718 C 228.869 71.279,228.844 71.272,228.839 71.606 M158.042 76.750 C 158.044 77.117,158.078 77.247,158.118 77.040 C 158.158 76.832,158.156 76.532,158.115 76.373 C 158.073 76.214,158.040 76.383,158.042 76.750 M150.339 77.322 C 150.244 77.500,150.172 77.743,150.178 77.864 C 150.184 77.985,150.271 77.915,150.370 77.708 C 150.470 77.502,150.614 77.333,150.692 77.333 C 150.770 77.333,150.833 77.258,150.833 77.167 C 150.833 76.884,150.521 76.982,150.339 77.322 M222.379 77.667 C 222.379 78.079,222.411 78.248,222.451 78.042 C 222.491 77.835,222.491 77.498,222.451 77.292 C 222.411 77.085,222.379 77.254,222.379 77.667 M229.667 77.333 C 229.667 77.425,229.817 77.650,230.000 77.833 C 230.183 78.017,230.345 78.410,230.358 78.708 C 230.382 79.218,230.387 79.222,230.453 78.788 C 230.496 78.504,230.385 78.103,230.164 77.746 C 229.796 77.150,229.667 77.043,229.667 77.333 M157.593 78.097 C 157.323 78.295,157.314 78.333,157.542 78.333 C 157.691 78.333,157.863 78.253,157.924 78.156 C 158.100 77.870,157.942 77.842,157.593 78.097 M150.048 79.083 C 150.049 79.542,150.081 79.709,150.120 79.456 C 150.158 79.203,150.157 78.828,150.117 78.623 C 150.078 78.418,150.046 78.625,150.048 79.083 M149.505 83.578 C 149.393 83.712,149.328 83.893,149.359 83.979 C 149.391 84.065,149.551 83.955,149.716 83.735 C 150.035 83.307,149.846 83.166,149.505 83.578 M230.500 83.672 C 230.500 83.761,230.567 83.833,230.649 83.833 C 230.881 83.833,231.034 84.324,231.165 85.500 C 231.284 86.567,231.286 86.571,231.309 85.750 C 231.337 84.725,231.077 83.732,230.747 83.605 C 230.611 83.553,230.500 83.583,230.500 83.672 M149.220 85.667 C 149.220 86.263,149.250 86.506,149.287 86.208 C 149.324 85.910,149.324 85.423,149.287 85.125 C 149.250 84.827,149.220 85.071,149.220 85.667 M223.212 86.333 C 223.212 86.746,223.245 86.915,223.284 86.708 C 223.324 86.502,223.324 86.165,223.284 85.958 C 223.245 85.752,223.212 85.921,223.212 86.333 M157.167 86.333 C 157.167 86.517,157.017 86.817,156.833 87.000 C 156.500 87.333,156.568 87.444,156.956 87.197 C 157.172 87.060,157.451 86.000,157.271 86.000 C 157.214 86.000,157.167 86.150,157.167 86.333 M223.368 88.000 C 223.353 89.116,223.556 90.214,223.792 90.292 C 224.054 90.379,224.067 89.800,223.809 89.542 C 223.704 89.437,223.564 88.878,223.498 88.300 C 223.396 87.400,223.377 87.357,223.368 88.000 M148.663 89.594 C 148.573 89.829,148.507 90.186,148.515 90.386 C 148.526 90.658,148.569 90.615,148.684 90.217 C 148.769 89.923,148.912 89.637,149.003 89.582 C 149.218 89.449,149.214 89.167,148.996 89.167 C 148.902 89.167,148.752 89.359,148.663 89.594 M231.333 90.264 C 231.333 90.541,231.410 90.843,231.504 90.937 C 231.597 91.031,231.745 91.439,231.833 91.845 C 231.975 92.507,231.984 92.464,231.916 91.426 C 231.835 90.200,231.333 89.198,231.333 90.264 M156.703 90.844 C 156.861 90.936,157.064 91.139,157.156 91.297 C 157.248 91.454,157.325 91.495,157.328 91.387 C 157.331 91.279,157.215 91.073,157.071 90.929 C 156.927 90.785,156.721 90.669,156.613 90.672 C 156.505 90.675,156.546 90.752,156.703 90.844 M221.058 92.757 C 220.913 93.134,221.043 93.154,221.375 92.806 C 221.622 92.547,221.627 92.500,221.411 92.500 C 221.271 92.500,221.112 92.616,221.058 92.757 M231.754 93.821 C 231.694 94.011,231.582 94.167,231.507 94.167 C 231.431 94.167,231.325 94.281,231.272 94.421 C 231.193 94.625,231.236 94.641,231.492 94.504 C 231.809 94.335,232.106 93.717,231.947 93.558 C 231.901 93.512,231.814 93.631,231.754 93.821 M148.500 94.083 C 148.500 94.214,148.656 94.405,148.848 94.508 C 149.326 94.764,149.339 94.653,148.883 94.214 C 148.612 93.953,148.500 93.915,148.500 94.083 M152.667 96.557 C 152.667 96.793,153.480 97.242,153.633 97.090 C 153.682 97.040,153.635 97.000,153.528 97.000 C 153.421 97.000,153.183 96.850,153.000 96.667 C 152.776 96.443,152.667 96.407,152.667 96.557 M164.500 96.396 C 164.500 96.507,165.128 97.167,165.234 97.167 C 165.431 97.167,165.018 96.543,164.755 96.442 C 164.615 96.388,164.500 96.367,164.500 96.396 M215.355 96.483 C 215.229 96.563,215.154 96.701,215.188 96.790 C 215.222 96.879,215.394 96.813,215.571 96.643 C 215.900 96.325,215.763 96.224,215.355 96.483 M213.071 98.128 C 212.973 98.195,212.837 98.398,212.770 98.579 C 212.663 98.869,212.700 98.860,213.074 98.509 C 213.308 98.289,213.500 98.084,213.500 98.054 C 213.500 97.959,213.256 98.001,213.071 98.128 M167.038 98.531 C 167.121 98.780,167.500 98.917,167.500 98.698 C 167.500 98.609,167.381 98.490,167.236 98.434 C 167.074 98.372,166.998 98.409,167.038 98.531 M158.500 99.563 C 158.500 99.598,158.612 99.719,158.750 99.833 C 158.955 100.003,159.000 99.992,159.000 99.770 C 159.000 99.622,158.887 99.500,158.750 99.500 C 158.612 99.500,158.500 99.528,158.500 99.563 M159.838 100.697 C 159.833 100.977,160.437 101.285,160.624 101.099 C 160.678 101.044,160.601 101.000,160.453 101.000 C 160.305 101.000,160.107 100.869,160.013 100.708 C 159.858 100.442,159.843 100.441,159.838 100.697 M173.084 102.501 C 173.416 102.867,173.598 102.828,173.442 102.424 C 173.388 102.282,173.217 102.167,173.063 102.167 C 172.806 102.167,172.808 102.196,173.084 102.501 M165.503 103.763 C 165.507 104.034,165.789 104.376,165.957 104.312 C 166.046 104.278,165.979 104.106,165.809 103.929 C 165.639 103.753,165.501 103.678,165.503 103.763 M205.037 103.926 C 204.678 104.177,204.537 104.505,204.792 104.495 C 204.910 104.490,205.576 103.667,205.462 103.667 C 205.432 103.667,205.241 103.783,205.037 103.926 M214.363 104.008 C 214.163 104.194,214.000 104.384,214.000 104.429 C 214.000 104.557,214.634 104.187,214.757 103.988 C 214.962 103.657,214.727 103.669,214.363 104.008 M171.370 107.027 C 171.406 107.134,171.616 107.340,171.838 107.486 L 172.240 107.750 171.912 107.297 C 171.578 106.836,171.253 106.674,171.370 107.027 M180.987 108.069 C 181.451 108.563,181.500 108.583,181.500 108.277 C 181.500 108.154,181.294 107.960,181.042 107.845 L 180.583 107.637 180.987 108.069 M199.398 107.830 C 199.205 107.908,198.998 108.110,198.939 108.278 C 198.839 108.566,198.845 108.567,199.060 108.292 C 199.185 108.131,199.368 108.000,199.467 108.000 C 199.566 108.000,199.693 107.925,199.750 107.833 C 199.869 107.641,199.866 107.641,199.398 107.830 M197.792 108.847 C 197.443 109.050,197.408 109.333,197.731 109.333 C 197.857 109.333,198.000 109.183,198.048 109.000 C 198.096 108.817,198.124 108.669,198.109 108.672 C 198.095 108.675,197.952 108.753,197.792 108.847 M177.167 110.230 C 177.167 110.264,177.279 110.386,177.417 110.500 C 177.621 110.670,177.667 110.659,177.667 110.437 C 177.667 110.288,177.554 110.167,177.417 110.167 C 177.279 110.167,177.167 110.195,177.167 110.230 M187.966 110.280 C 187.810 110.321,187.638 110.496,187.583 110.669 C 187.507 110.906,187.293 110.995,186.700 111.033 C 186.033 111.076,185.909 111.139,185.863 111.458 C 185.824 111.733,185.699 111.833,185.394 111.833 C 184.846 111.833,184.333 112.118,184.333 112.423 C 184.333 112.557,184.181 112.667,183.996 112.667 C 183.789 112.667,183.597 112.828,183.500 113.083 C 183.403 113.338,183.211 113.500,183.004 113.500 C 182.785 113.500,182.667 113.610,182.667 113.814 C 182.667 113.987,182.479 114.251,182.250 114.401 C 181.940 114.604,181.833 114.820,181.833 115.243 C 181.833 115.664,181.747 115.838,181.500 115.917 C 180.846 116.124,180.934 117.333,181.604 117.333 C 181.760 117.333,181.833 117.544,181.833 117.994 C 181.833 118.801,182.129 119.000,183.322 119.000 C 184.112 119.000,184.167 118.973,184.167 118.583 C 184.167 118.279,184.256 118.167,184.497 118.167 C 184.710 118.167,184.864 118.019,184.932 117.750 C 184.989 117.521,185.135 117.333,185.257 117.333 C 185.378 117.333,185.527 117.179,185.586 116.990 C 185.646 116.802,185.876 116.579,186.098 116.495 C 186.319 116.410,186.500 116.232,186.500 116.099 C 186.500 115.966,186.669 115.833,186.875 115.803 C 187.116 115.769,187.269 115.616,187.303 115.375 C 187.350 115.046,187.454 115.000,188.154 115.000 C 188.773 115.000,189.052 114.907,189.401 114.583 C 189.958 114.067,190.833 114.005,190.833 114.482 C 190.833 114.840,191.144 115.000,191.839 115.000 C 192.128 115.000,192.484 115.166,192.735 115.417 C 192.964 115.646,193.337 115.833,193.564 115.833 C 193.865 115.833,193.991 115.935,194.030 116.208 C 194.064 116.449,194.217 116.602,194.458 116.637 C 194.706 116.672,194.833 116.804,194.833 117.027 C 194.833 117.224,194.972 117.401,195.167 117.452 C 195.350 117.500,195.500 117.670,195.500 117.830 C 195.500 119.048,198.188 119.489,198.660 118.349 C 199.014 117.496,198.814 115.092,198.385 115.031 C 198.158 114.999,198.001 114.842,197.969 114.615 C 197.936 114.388,197.779 114.230,197.552 114.198 C 197.325 114.166,197.168 114.009,197.135 113.781 C 197.102 113.551,196.946 113.397,196.708 113.363 C 196.467 113.329,196.333 113.195,196.333 112.988 C 196.333 112.756,196.217 112.667,195.917 112.667 C 195.583 112.667,195.500 112.583,195.500 112.250 C 195.500 111.898,195.422 111.833,195.000 111.833 C 194.663 111.833,194.500 111.750,194.500 111.579 C 194.500 111.260,193.835 111.000,193.016 111.000 C 192.507 111.000,192.351 110.921,192.197 110.583 C 192.012 110.178,189.137 109.972,187.966 110.280 M201.833 111.144 C 201.833 111.254,201.665 111.412,201.458 111.495 C 201.205 111.597,201.171 111.649,201.355 111.656 C 201.663 111.668,202.103 111.214,201.940 111.052 C 201.882 110.993,201.833 111.034,201.833 111.144 " stroke="none" fill="#921b1c" fill-rule="evenodd"></path><path id="path3" d="" stroke="none" fill="#bcc0100" fill-rule="evenodd"></path><path id="path4" d="" stroke="none" fill="#bcc0100" fill-rule="evenodd"></path></g></svg>